<svg id="Laag_1" data-name="Laag 1" xmlns="http://www.w3.org/2000/svg" viewBox="0 0 161.8 59.77"><defs><style>.cls-1{fill:#060606;}</style></defs><title>buyme</title><path class="cls-1" d="M17.67,2.63h2.61q1.71,0,3.92.09t4.72.09h5.4a2.86,2.86,0,0,1,.45,0,3.2,3.2,0,0,0,.54,0q.54.09,1.17.14a8.1,8.1,0,0,1,1.35.22A12,12,0,0,1,41.2,4.88a6.68,6.68,0,0,1,2.56,3.6,7.2,7.2,0,0,1,.14,1.17,4.6,4.6,0,0,1-.31,1.8l-.09.09q-.45,1.08-1.21,2.74a20.48,20.48,0,0,1-2.12,3.51,27.45,27.45,0,0,1-3.24,3.65,21.61,21.61,0,0,1-4.5,3.24c.12.12.21.18.27.18a12.45,12.45,0,0,1,3.82,3.64,13.39,13.39,0,0,1,1.8,4,13.77,13.77,0,0,1,.4,3.92,24.65,24.65,0,0,1-.36,3.33q-.18.72-.5,1.71a11.33,11.33,0,0,1-.85,2,17.7,17.7,0,0,1-2.21,3.38,15.23,15.23,0,0,1-3.15,2.83,17,17,0,0,1-4.32,2.07,19.93,19.93,0,0,1-5.62.9,24.82,24.82,0,0,1-8.73-1,15.16,15.16,0,0,1-5.54-3.15,11.42,11.42,0,0,1-3-4.46,17,17,0,0,1-1-4.86,16,16,0,0,1,.31-4.41,14,14,0,0,1,1-3.1,8.86,8.86,0,0,1,1.71-1.62,12.07,12.07,0,0,1,2.16-1.17,8.46,8.46,0,0,1,2.88-.63,1.37,1.37,0,0,1,.5.13q.31.13.14.58-.36.9-1,2.61a21.38,21.38,0,0,0-1,3.82,26.18,26.18,0,0,0-.36,4.41,9.91,9.91,0,0,0,.9,4.23,8.53,8.53,0,0,0,2.84,3.33,11.23,11.23,0,0,0,5.44,1.75,10.48,10.48,0,0,0,3.6-.27,18.14,18.14,0,0,0,3.38-1.44,10.58,10.58,0,0,0,3.46-3.24,11.31,11.31,0,0,0,1.48-2.38q.49-1.12.85-2.12l.09-.18a3.52,3.52,0,0,0,.22-.77,3.31,3.31,0,0,1,.14-.58,9.26,9.26,0,0,0-.18-4.5,8.89,8.89,0,0,0-1.75-3.15,10.21,10.21,0,0,0-2.43-2,12.14,12.14,0,0,0-2.11-1h-.36q-1.89,4.68-3.06,8.33T20.46,42a45.35,45.35,0,0,0-1,5.22,9.6,9.6,0,0,1-2.07-.5c-.54-.21-1-.4-1.35-.58a4.61,4.61,0,0,1-1-.72,4.24,4.24,0,0,1-.94-3.2,22.39,22.39,0,0,1,.81-5.13A67.59,67.59,0,0,1,17,30.62q1.3-3.51,2.92-7.07t3.29-7q1.66-3.42,3.19-6.3a8.87,8.87,0,0,0,1.26.58q1,.41,1.53.68a2.19,2.19,0,0,1,.68.45,2.83,2.83,0,0,1,.67.95,3.83,3.83,0,0,1,.31,1.39,4.4,4.4,0,0,1-.4,1.89l-1.21,2.43q-.59,1.17-1,2.25a30.55,30.55,0,0,0,2.7-2,16.47,16.47,0,0,0,2.66-2.75,17.37,17.37,0,0,0,2.07-3.46,12.24,12.24,0,0,0,1-4h-.09q-3,0-6.84,0T22.44,9a40.1,40.1,0,0,0-5.76.81q-2.34.54-2.34,1.62a4,4,0,0,1-1-1.26,6,6,0,0,1-.58-1.53,5.22,5.22,0,0,1,0-2.07,5.6,5.6,0,0,1,.72-1.89,4.12,4.12,0,0,1,1.44-1.3A6.92,6.92,0,0,1,17.67,2.63Z" transform="translate(-3.37 -2.63)"/><path class="cls-1" d="M53,42.68a4.62,4.62,0,0,1-.27-1.44q.18-1.35.54-3.06-1.17,1.35-2.39,2.57t-2.2,2.16q-1,.94-1.67,1.53c-.45.39-.74.65-.85.77s-.3.21-.36.09h-.09L45,45.11l-1.21-.5q-.58-.22-1.21-.41A2.48,2.48,0,0,1,41.07,42,27.49,27.49,0,0,1,43,32.78a53.3,53.3,0,0,1,4.27-8.46,4.64,4.64,0,0,1,1-.9,1.1,1.1,0,0,1,1.26.09,8.14,8.14,0,0,1,.95.68q.49.4.94.85a14.1,14.1,0,0,1,1.08,1l1.08,1.08a3.68,3.68,0,0,1-.45.54,3.78,3.78,0,0,0-.72,1A39.15,39.15,0,0,0,49,34.44a29.09,29.09,0,0,0-2.16,6.25q-.09.45.36.22A6.6,6.6,0,0,0,48.45,40,19.92,19.92,0,0,0,50.29,38q1-1.21,2.12-2.66a18.87,18.87,0,0,0,1.35-1.71L55,31.88,56,30.44q.58-.9,1-1.62a1,1,0,0,1,.18-.27,1,1,0,0,0,.18-.27l.85-1.35a11.79,11.79,0,0,1,.85-1.17,8.89,8.89,0,0,1,1.08-1.35q.63-.63,1.08-.45c.06,0,.09,0,.09,0s0,0,.09,0a10.05,10.05,0,0,1,2.07,1.58,15.45,15.45,0,0,1,1.62,1.75.78.78,0,0,1,.27.54.61.61,0,0,1-.18.45L64.11,30q-.72,1.08-1.53,2.52T61,35.61a27.2,27.2,0,0,0-1.35,3.29,8.42,8.42,0,0,1,1.13-1.12q1-.95,2.52-2.34t3.15-3.1q1.66-1.71,3.1-3.42h2.25q-2.07,2.79-4.32,5.67l-4.09,5.26q-2.21,2.84-4.1,5.17v.09h-.09v.09h-.09c-.12.12-.21.18-.27.18a.08.08,0,0,0-.09.09.94.94,0,0,1-.58.13,2.15,2.15,0,0,0-.4,0q-.63-.18-1.49-.5a16.77,16.77,0,0,1-1.75-.76c-.12,0-.18,0-.18-.09A2.17,2.17,0,0,1,53,42.68Z" transform="translate(-3.37 -2.63)"/><path class="cls-1" d="M85.08,55.73a4.56,4.56,0,0,0-2.25-1.53,17.93,17.93,0,0,0-3.42-.81,1.84,1.84,0,0,0-.59-.09h-.58c-.12.24-.24.46-.36.67l-.45.77q-.45.72-1.13,1.71a15.75,15.75,0,0,1-1.62,2,16.82,16.82,0,0,1-2.16,1.89,10.41,10.41,0,0,1-2.75,1.44,11.63,11.63,0,0,1-4.32.63A5.88,5.88,0,0,1,61,60.27,5.55,5.55,0,0,1,59.74,56a7.51,7.51,0,0,1,2.75-4.54q2.43-2.16,7.38-2.7a8,8,0,0,0,1.08-.09,7.38,7.38,0,0,1,1.22-.09c.45,0,1,0,1.57-.09H74a39.29,39.29,0,0,1,1.75-4.36,11.66,11.66,0,0,0,1-2.75,6.17,6.17,0,0,0,.13-.72,3.39,3.39,0,0,1,.13-.63,1,1,0,0,0,.09-.45.75.75,0,0,0,.09-.32.72.72,0,0,1,.09-.31Q76.16,40.25,75,41.46t-2.2,2.16q-1,.94-1.67,1.53a4.15,4.15,0,0,0-.77.76c-.24.12-.39.15-.45.09h-.09l-.72-.18-1.21-.5q-.58-.22-1.21-.41a2.48,2.48,0,0,1-1.53-2.25A27.48,27.48,0,0,1,67,33.5,53.44,53.44,0,0,1,71.31,25a4.64,4.64,0,0,1,1-.9,1.1,1.1,0,0,1,1.26.09,8,8,0,0,1,.95.67c.33.27.64.56.94.85a14.3,14.3,0,0,1,1.08,1l1.08,1.08-.36.54a10,10,0,0,0-.81,1A39.11,39.11,0,0,0,73,35.16a29.09,29.09,0,0,0-2.16,6.25q-.09.45.36.22a6.58,6.58,0,0,0,1.26-.94,19.77,19.77,0,0,0,1.84-1.94q1-1.21,2.12-2.65a18.92,18.92,0,0,0,1.35-1.71L79,32.6,80,31.16q.59-.9,1-1.62a1,1,0,0,1,.18-.27,1.07,1.07,0,0,0,.18-.27l.86-1.35a11.6,11.6,0,0,1,.86-1.17q.63-.81,1.08-1.35c.42-.42.78-.57,1.08-.45a.27.27,0,0,1,.18.09,10,10,0,0,1,2.07,1.57q1.08,1,1.71,1.76a.43.43,0,0,0,.09.22.55.55,0,0,1,.09.32,1,1,0,0,1-.09.45q-.45.54-1.17,1.62t-1.53,2.52q-.81,1.44-1.62,3.11a27.28,27.28,0,0,0-1.35,3.29l1.26-1.21q1.08-1,2.61-2.61t3.24-3.37q1.71-1.8,3.15-3.51h2.25q-2.25,3.06-4.5,6l-4.18,5.54q-2.21,2.93-4.19,5.27v.09h-.09v.09H83.1c-.12.12-.21.18-.27.18l-.09.09a2.37,2.37,0,0,1-.72.09,2.15,2.15,0,0,1-.68.72,3.39,3.39,0,0,0-.95,1.44.52.52,0,0,1,.36.09,14.61,14.61,0,0,1,1.71.13,9.43,9.43,0,0,1,2.16.54,5.55,5.55,0,0,1,1.89,1.17,2.55,2.55,0,0,1,.81,1.93,2.93,2.93,0,0,1-.23,1.22q-.23.49-.4.94a4.51,4.51,0,0,1-.54.63l-.18.18a6.38,6.38,0,0,1-.63.36A.71.71,0,0,1,85.08,55.73ZM69.51,57.44q.72-1,1.4-2.07T72.21,53h-.9a7.56,7.56,0,0,0-1.44,0,6.35,6.35,0,0,0-1.08.13h-.18a12.6,12.6,0,0,0-3.56.9,3.77,3.77,0,0,0-2.29,2.34,2.62,2.62,0,0,0,0,1.84,2.33,2.33,0,0,0,1,1.17,3.15,3.15,0,0,0,1.71.36,5.19,5.19,0,0,0,2.07-.58,6.19,6.19,0,0,1,.63-.45,6.36,6.36,0,0,0,.68-.58Z" transform="translate(-3.37 -2.63)"/><path class="cls-1" d="M136,39.35l1.22-1.12q1.12-1,2.7-2.56t3.33-3.33q1.75-1.8,3.2-3.51l2.25.09q-2.25,3-4.59,5.94-2,2.52-4.23,5.45t-4.23,5.26l-.09.09-.09.09c-.06.06-.11.09-.13.09s-.08,0-.13.09h-.09a1,1,0,0,1-.58.13,2.08,2.08,0,0,0-.41,0q-.63-.18-1.49-.5t-1.75-.67a.27.27,0,0,0-.18-.09,2.52,2.52,0,0,1-1.26-1.62,3.37,3.37,0,0,1-.27-1.35q.09-1.26.32-2.7a22.1,22.1,0,0,1,.72-3.06,19.86,19.86,0,0,1,1.44-3.42,26.07,26.07,0,0,1,2.56-3.87,19,19,0,0,0-3.78,3.42,36,36,0,0,0-3.73,5.17,54.14,54.14,0,0,0-4,8.23c-.06.18-.14.27-.23.27h-.22L119,44.75a2.43,2.43,0,0,1-1.44-2.34,30.85,30.85,0,0,1,1.08-6.66l.63-1.58q.27-.68.54-1.21a15.27,15.27,0,0,1,1.13-2,22.2,22.2,0,0,1,1.67-2.21,17.76,17.76,0,0,0-3.87,3.42A35.92,35.92,0,0,0,115,37.32a49.54,49.54,0,0,0-3.92,8.23c-.06.18-.13.27-.22.27h-.23l-3.24-1.08A2.44,2.44,0,0,1,106,42.41a27.48,27.48,0,0,1,1.93-9.18,53.39,53.39,0,0,1,4.28-8.46,4.38,4.38,0,0,1,.95-.86,1,1,0,0,1,1.21,0,8.2,8.2,0,0,1,.94.67q.49.41.95.86t1.08,1q.63.59,1.08,1l-.36.54a10.44,10.44,0,0,0-.81,1q-.9,1.35-1.71,2.7T114,34.58q.9-1.17,1.94-2.38a30.06,30.06,0,0,1,2.38-2.48,20.24,20.24,0,0,1,1.62-1.62,24.65,24.65,0,0,1,2.34-1.89q.27-.18.5-.36c.15-.12.31-.24.5-.36a6.55,6.55,0,0,1,1.62-.95,1.64,1.64,0,0,1,1.35,0,13.82,13.82,0,0,1,2.07,1.67q1.08,1,1.62,1.67a.78.78,0,0,1,.27.54,1.59,1.59,0,0,1-.18.45,16.53,16.53,0,0,1-1.8,2.16,18.19,18.19,0,0,0-2.52,3.51,29.85,29.85,0,0,1,4.23-4.77,20.57,20.57,0,0,1,1.62-1.62,24.67,24.67,0,0,1,2.34-1.89q.72-.54,1-.72a6.55,6.55,0,0,1,1.62-.95,1.65,1.65,0,0,1,1.35,0,13.77,13.77,0,0,1,2.07,1.67q1.08,1,1.62,1.67a.78.78,0,0,1,.27.54.61.61,0,0,1-.18.45q-.36.54-1.08,1.67T139,33q-.81,1.4-1.62,3.06A27.27,27.27,0,0,0,136,39.35Z" transform="translate(-3.37 -2.63)"/><path class="cls-1" d="M148.7,42.95a3.34,3.34,0,0,0,2.21-.23,10.34,10.34,0,0,0,2.34-1.48,21.3,21.3,0,0,0,2.39-2.29q1.17-1.3,2.25-2.66a73.38,73.38,0,0,0,5-7.47l2.25.09q-.36.81-.9,1.8-.9,1.62-2.88,4.77-.45.72-.9,1.35t-.9,1.35a3,3,0,0,1-.18.32l-.27.41a2.56,2.56,0,0,1-.45.54,1,1,0,0,0-.18.27,1.22,1.22,0,0,1-.23.32l-.22.22a22.11,22.11,0,0,1-2.12,2.47,11.89,11.89,0,0,1-3.74,2.66l-.9.45a.37.37,0,0,0-.27.09.51.51,0,0,0-.36.09q-.45.09-.9.13a9,9,0,0,1-.9,0c-.3,0-.63,0-1,0a8.94,8.94,0,0,1-1-.13,6.16,6.16,0,0,1-4.09-2.61,7.44,7.44,0,0,1-1-4.19,14.47,14.47,0,0,1,1-4.63,17.28,17.28,0,0,1,2.16-4A29.5,29.5,0,0,1,147.71,27a16.86,16.86,0,0,1,2.61-2.21,6.77,6.77,0,0,1,1.26-.72,4,4,0,0,1,1.26-.18,2.38,2.38,0,0,1,1.53.72q.72.72,1.4,1.35T156.89,27l1,1a1.17,1.17,0,0,1,.27.54,2.65,2.65,0,0,1,0,.86,3.62,3.62,0,0,1-.5,1.3,16.72,16.72,0,0,1-2.16,3.51,2.81,2.81,0,0,1-.54.72,15.8,15.8,0,0,1-2.07,1.89,10.42,10.42,0,0,1-3.46,1.8,19.77,19.77,0,0,1-2.39.54q-.72,1.8.09,2.7A2,2,0,0,0,148.7,42.95ZM148,37.37a1.93,1.93,0,0,1-.36.63,9.9,9.9,0,0,0,3.65-2.57A21.37,21.37,0,0,0,153.2,33a11.69,11.69,0,0,0,1-1.57,3.31,3.31,0,0,0,.45-1.49q-1.35,1.26-2.52,2.52L150,34.85A18.19,18.19,0,0,0,148,37.37Z" transform="translate(-3.37 -2.63)"/></svg>