<svg id="Laag_1" data-name="Laag 1" xmlns="http://www.w3.org/2000/svg" viewBox="0 0 243.88 120.37"><defs><style>.cls-1{fill:#060606;}</style></defs><title>gottaste</title><path class="cls-1" d="M51.49,74.34a44.16,44.16,0,0,1-9.36.09l-9.72-.9A23.83,23.83,0,0,1,27.59,78a12.63,12.63,0,0,1-4,1.84,6.88,6.88,0,0,1-3.11.09,7.88,7.88,0,0,1-2.21-.85,9.78,9.78,0,0,1-2.79-3.6q-.72-1.8-.81-2a3.34,3.34,0,0,1-.09-1.26,3.59,3.59,0,0,1,1.21-2.61A8.1,8.1,0,0,1,18.1,68.4,16.8,16.8,0,0,1,21.34,68q1.8,0,3.6.09t3.6.09l.27.09.27-.81q.54-1.89.95-3.24t.81-2.47q.4-1.12.85-2.29l1.08-2.79a53.43,53.43,0,0,1-4.28,3.6q-1.94,1.44-3.42,2.34T22.6,63.95q-1,.5-1.44.76a.8.8,0,0,1-.36.09h-.27a8.59,8.59,0,0,1-2-.5q-.77-.31-1.31-.58a4.58,4.58,0,0,1-1-.72q-1.44-1.44-1-4.63a34.5,34.5,0,0,1,1.89-7.29q1.49-4.09,3.69-8.73t4.46-9q.27-.54.49-1c.15-.33.32-.68.5-1a2.1,2.1,0,0,1,.27-.45,55.75,55.75,0,0,0-6.21,5.67A50.16,50.16,0,0,0,15,43a38.12,38.12,0,0,0-5.13,9.63q-.45,1.26-.81,2.66A3.69,3.69,0,0,0,9.37,58q.18.27,0,.41a.55.55,0,0,1-.27.13,6.25,6.25,0,0,1-2.57.36,4.81,4.81,0,0,1-2.38-.81,3.74,3.74,0,0,1-1.8-3.33A11.12,11.12,0,0,1,3,50.85,41.3,41.3,0,0,1,10.4,38.12,72.3,72.3,0,0,1,21.16,27.9q.81-.63,1.71-1.21t1.8-1.21l1.84-1.08q.94-.54,1.93-1a2,2,0,0,1,.63-.36,3.48,3.48,0,0,0,.81-.45,3.54,3.54,0,0,1,.81-.45h.36l.18-.09h.41a.9.9,0,0,1,.41.09,8,8,0,0,1,1.44.72,16.26,16.26,0,0,1,1.89,1.35,1.94,1.94,0,0,1,.72,1.85,7.73,7.73,0,0,1-.45,1.67l-.13.27-.13.27a.69.69,0,0,0-.09.27q-3.69,6.39-6.07,11.29T25.3,48.51A66.65,66.65,0,0,0,23,55.13q-.81,2.84-1.35,5.08a38.49,38.49,0,0,0,7-5.62,92.89,92.89,0,0,0,6.52-7.25q3.06-3.78,5.54-7.42t4.09-6.17q.63-1,1.17-1.89T47.08,30q1.08-1.62,2.21-3.24t2.29-3.15q0-.27.63-.27a3.89,3.89,0,0,1,.63.18,8,8,0,0,1,1.39,1.13q.68.68,1.3,1.4A2.25,2.25,0,0,1,56,28,4.4,4.4,0,0,1,55,30Q53.56,32,52.3,34t-2.52,4L48.61,40q-.72,1.17-1.17,2-2.07,3.51-4.14,7.33t-3.69,7.6q-.81,1.8-1.35,3.11t-1,2.52q-.45,1.22-.86,2.57t-.94,3.24q1.26.09,2.38.09h2.38l4.63-.18q2.2-.09,4-.27a24.38,24.38,0,0,0,4-.58,4.23,4.23,0,0,0,2.16-1c.12-.18.24-.26.36-.22a.4.4,0,0,1,.27.22,6,6,0,0,1,1,1.58,4.08,4.08,0,0,1,.09,2.83,4.29,4.29,0,0,1-.9,1.71,4.24,4.24,0,0,1-1.53,1.21A8.26,8.26,0,0,1,51.49,74.34ZM24,73.71a2.7,2.7,0,0,1,.5-.54,3.94,3.94,0,0,0,.58-.63.63.63,0,0,1-.27,0,.63.63,0,0,0-.27,0,16.45,16.45,0,0,0-2.52-.27,6,6,0,0,0-1.53,0,1.5,1.5,0,0,0-1,.81,2,2,0,0,0,0,1.62v.09a1.08,1.08,0,0,0,1.26.72q.81-.18,1.44-.36l.9-.72A8.15,8.15,0,0,1,24,73.71Z" transform="translate(-2.35 -3.55)"/><path class="cls-1" d="M69.31,48.78a12.55,12.55,0,0,1-4,1.13,13.42,13.42,0,0,1-3.33-.13,10.8,10.8,0,0,1,0,3.42q-.09.27-.32,1.08a15.39,15.39,0,0,1-.76,2,14.12,14.12,0,0,1-1.53,2.57,17.37,17.37,0,0,1-2.52,2.7q-.36.27-.67.54a6.3,6.3,0,0,1-.58.45l-.81.54a10.73,10.73,0,0,1-2.57,1.17c-.69.18-1.19.3-1.48.36h-.09a4.88,4.88,0,0,0-.67,0,1.71,1.71,0,0,1-.67,0,5.25,5.25,0,0,1-4-1.62,5.45,5.45,0,0,1-1.8-4,16.18,16.18,0,0,1,.63-5l.36-1.08c.12-.36.24-.69.36-1a19.2,19.2,0,0,1,3.11-5.67q1.75-2.07,2.38-2.79a9.43,9.43,0,0,1,1.44-.9,5,5,0,0,1,1.35-.36,2.17,2.17,0,0,1,1.44.36l1.08.76q.45.32.9.67l.36.27H57a2.07,2.07,0,0,1,.9,1.62,3.85,3.85,0,0,1-.18,1.35c-.06.12-.12.18-.18.18h-.09a2.24,2.24,0,0,0-1,.27,26.59,26.59,0,0,0-2.25,1.62,16.53,16.53,0,0,0-4,5.31q-.27.54-.58,1.26a8.17,8.17,0,0,0-.5,1.53L49,58.41a2.72,2.72,0,0,0,0,1q0,1.44,1,1.8a2.82,2.82,0,0,0,.81.18,1.54,1.54,0,0,0,.63-.09h.27a8.58,8.58,0,0,0,2-.9,11.3,11.3,0,0,0,2.79-2.52,11.42,11.42,0,0,0,.76-1.21q.31-.58.58-1a6.53,6.53,0,0,0,.58-2.21,5.25,5.25,0,0,0,0-1.3v-.18A6.56,6.56,0,0,0,57,49c-.12-.12-.18-.21-.18-.27a.26.26,0,0,0-.09-.18.3.3,0,0,1,.14-.27,1.39,1.39,0,0,0,.22-.18c0-.06.06-.15.18-.27l1.53-1.17.18-.09H59a33.62,33.62,0,0,0,5.27.76,28.74,28.74,0,0,0,4.81-.13.74.74,0,0,1,.32,1C69.23,48.59,69.19,48.78,69.31,48.78Z" transform="translate(-2.35 -3.55)"/><path class="cls-1" d="M75.06,61.83a4.63,4.63,0,0,1-.27-1.44q.18-1.35.54-3.06Q74.16,58.68,73,59.9t-2.21,2.16q-1,.94-1.67,1.53c-.45.39-.74.65-.86.77s-.3.21-.36.09h-.09l-.72-.18-1.21-.5q-.58-.22-1.21-.41a2.48,2.48,0,0,1-1.53-2.25A27.48,27.48,0,0,1,65,51.93a53.19,53.19,0,0,1,4.27-8.46,4.63,4.63,0,0,1,1-.9,1.1,1.1,0,0,1,1.26.09,8.17,8.17,0,0,1,.95.67q.49.41.95.86a14.2,14.2,0,0,1,1.08,1l1.08,1.08a3.64,3.64,0,0,1-.45.54,3.8,3.8,0,0,0-.72,1A39.16,39.16,0,0,0,71,53.6a29.12,29.12,0,0,0-2.16,6.25q-.09.45.36.22a6.6,6.6,0,0,0,1.26-.95,19.86,19.86,0,0,0,1.85-1.93q1-1.21,2.11-2.66a19,19,0,0,0,1.35-1.71L77,51,78,49.59q.58-.9,1-1.62a1,1,0,0,1,.18-.27,1.07,1.07,0,0,0,.18-.27l.86-1.35a11.71,11.71,0,0,1,.85-1.17,8.81,8.81,0,0,1,1.08-1.35q.63-.63,1.08-.45c.06,0,.09,0,.09,0s0,0,.09,0a10,10,0,0,1,2.07,1.58,15.5,15.5,0,0,1,1.62,1.75.78.78,0,0,1,.27.54.61.61,0,0,1-.18.45l-1.08,1.62q-.72,1.08-1.53,2.52T83,54.77a27.21,27.21,0,0,0-1.35,3.29,8.45,8.45,0,0,1,1.13-1.12q1-.95,2.52-2.34t3.15-3.1q1.66-1.71,3.11-3.42h2.25q-2.07,2.79-4.32,5.67L85.37,59q-2.21,2.84-4.1,5.17v.09h-.09v.09h-.09c-.12.12-.21.18-.27.18a.08.08,0,0,0-.09.09.94.94,0,0,1-.59.13,2.15,2.15,0,0,0-.4,0q-.63-.18-1.49-.5a16.68,16.68,0,0,1-1.75-.76c-.12,0-.18,0-.18-.09A2.17,2.17,0,0,1,75.06,61.83Z" transform="translate(-2.35 -3.55)"/><path class="cls-1" d="M107.15,6.58A18.75,18.75,0,0,1,107,8.69a10.56,10.56,0,0,1-.37,1.85,11,11,0,0,1-.7,1.76,16,16,0,0,1-1.1,1.85L98.75,23.5a2.61,2.61,0,0,1-.42.48,1.88,1.88,0,0,1-.57.35,3.53,3.53,0,0,1-.77.2,7.76,7.76,0,0,1-1.1.07,6.84,6.84,0,0,1-.83,0,1,1,0,0,1-.51-.18.51.51,0,0,1-.18-.35.92.92,0,0,1,.15-.53l6.11-12V6.58A5.64,5.64,0,0,1,100.82,5a1.85,1.85,0,0,1,.57-.92,2.15,2.15,0,0,1,1-.44,8.76,8.76,0,0,1,1.49-.11,8.46,8.46,0,0,1,1.45.11,2.15,2.15,0,0,1,1,.44,2,2,0,0,1,.59.92A5,5,0,0,1,107.15,6.58Z" transform="translate(-2.35 -3.55)"/><path class="cls-1" d="M132.36,33.93a3.52,3.52,0,0,1,1.53,2.7,8.75,8.75,0,0,1-.5,3.33,18.49,18.49,0,0,1-1.53,3.33q-.95,1.62-1.58,2.79a98.46,98.46,0,0,1-6.53,9.63,96,96,0,0,1-7.42,8.55l-.27.27a1.91,1.91,0,0,1-1.26.45,1.25,1.25,0,0,1-.54-.09l-2.07-.63h-.09a3.5,3.5,0,0,0-.72-.27,3.45,3.45,0,0,1-.72-.27,2.48,2.48,0,0,1-1.53-2.25,27.48,27.48,0,0,1,1.94-9.18,53.43,53.43,0,0,1,4.27-8.46,4.65,4.65,0,0,1,1-.9,1,1,0,0,1,1.17.09,11.88,11.88,0,0,1,1,.67,9.43,9.43,0,0,1,1,.86,14.33,14.33,0,0,1,1.08,1l1.08,1.08a3.55,3.55,0,0,1-.45.54,3.78,3.78,0,0,0-.72,1,46.29,46.29,0,0,0-3.33,5.76A28.19,28.19,0,0,0,115,60.12q1.71-2.61,4.14-6.39t4.46-7.7a51.3,51.3,0,0,0,3.2-7.47q1.17-3.56.54-5.62v-.18a.24.24,0,0,1,.27-.27,5.67,5.67,0,0,1,2.57.22A6.91,6.91,0,0,1,132.36,33.93Z" transform="translate(-2.35 -3.55)"/><path class="cls-1" d="M135.69,62.1a3.34,3.34,0,0,0,2.21-.23,10.34,10.34,0,0,0,2.34-1.48,21.3,21.3,0,0,0,2.39-2.29q1.17-1.3,2.25-2.66a73.38,73.38,0,0,0,5-7.47l2.25.09q-.36.81-.9,1.8-.9,1.62-2.88,4.77-.45.72-.9,1.35t-.9,1.35a3,3,0,0,1-.18.32l-.27.41a2.56,2.56,0,0,1-.45.54,1,1,0,0,0-.18.27,1.22,1.22,0,0,1-.23.32l-.22.22a22.11,22.11,0,0,1-2.12,2.47,11.89,11.89,0,0,1-3.74,2.66l-.9.45a.37.37,0,0,0-.27.09.51.51,0,0,0-.36.09q-.45.09-.9.13a9,9,0,0,1-.9,0c-.3,0-.63,0-1,0a8.94,8.94,0,0,1-1-.13,6.16,6.16,0,0,1-4.09-2.61,7.44,7.44,0,0,1-1-4.19,14.47,14.47,0,0,1,1-4.63,17.26,17.26,0,0,1,2.16-4,29.61,29.61,0,0,1,2.79-3.56,17,17,0,0,1,2.61-2.21,6.76,6.76,0,0,1,1.26-.72,4,4,0,0,1,1.26-.18,2.38,2.38,0,0,1,1.53.72q.72.72,1.4,1.35t1.13,1.08l1,1a1.16,1.16,0,0,1,.27.54,2.65,2.65,0,0,1,0,.86,3.62,3.62,0,0,1-.5,1.3,16.72,16.72,0,0,1-2.16,3.51,2.81,2.81,0,0,1-.54.72A15.8,15.8,0,0,1,139.92,56a10.42,10.42,0,0,1-3.46,1.8,19.77,19.77,0,0,1-2.39.54q-.72,1.8.09,2.7A2,2,0,0,0,135.69,62.1ZM135,56.52a1.93,1.93,0,0,1-.36.63,9.9,9.9,0,0,0,3.65-2.57,21.37,21.37,0,0,0,1.93-2.38,11.64,11.64,0,0,0,1-1.58,3.3,3.3,0,0,0,.45-1.48q-1.35,1.26-2.52,2.52L136.95,54A18.19,18.19,0,0,0,135,56.52Z" transform="translate(-2.35 -3.55)"/><path class="cls-1" d="M181.32,58q1.8-1.62,3.51-3.24,1.53-1.44,3.24-3.2A36.62,36.62,0,0,0,191.13,48l2.25.09q-2.07,2.79-4.23,5.67-1.8,2.43-4,5.26T181,64.17a1.51,1.51,0,0,1-.9.5,1.24,1.24,0,0,1-.63,0,1.52,1.52,0,0,1-.45-.18,3.36,3.36,0,0,1-.81.95A4.8,4.8,0,0,0,177,67.32h.45a10.9,10.9,0,0,1,1.71.18,10.59,10.59,0,0,1,2.11.58,6.11,6.11,0,0,1,1.85,1.13,2.51,2.51,0,0,1,.81,2,3.6,3.6,0,0,1-.18,1.21,8.62,8.62,0,0,1-.36.86,4.57,4.57,0,0,1-.54.63l-.18.18a2.44,2.44,0,0,1-.63.45.72.72,0,0,1-.27.09A4.8,4.8,0,0,0,179.52,73a15.79,15.79,0,0,0-3.51-.85,3.36,3.36,0,0,1-.54,0,3.15,3.15,0,0,0-.54,0c-.12.24-.26.48-.41.72a8.2,8.2,0,0,0-.4.72q-.45.72-1.12,1.71a14.07,14.07,0,0,1-1.67,2,19.94,19.94,0,0,1-2.21,1.89,10.44,10.44,0,0,1-2.75,1.44,11.37,11.37,0,0,1-4.23.63,5.71,5.71,0,0,1-4.54-2.07,5.46,5.46,0,0,1-1.21-4.37,7.74,7.74,0,0,1,2.79-4.54q2.43-2.16,7.29-2.7a7.85,7.85,0,0,0,1.08-.09,7.37,7.37,0,0,1,1.21-.09c.45,0,1,0,1.58-.09h.36a60,60,0,0,1,2.11-5.67,21.93,21.93,0,0,0,1-2.52q-.72,1.17-1.8,2.75a33,33,0,0,1-2.16,2.83,2.34,2.34,0,0,1-1.39.54,1.81,1.81,0,0,1-.95-.18L163,63.36a1.24,1.24,0,0,1-.85-.95,6,6,0,0,1-.14-.85,35.44,35.44,0,0,1,.58-4,19.55,19.55,0,0,1,1.89-5.31,20.26,20.26,0,0,1,3.87-5.13,15.09,15.09,0,0,1,6.61-3.6c.12-.12.51-.15,1.17-.09l6,.9a1,1,0,0,0,.27.18.29.29,0,0,1,.18.27q0,.27-.45.45-1.26.54-3.15,1.53a18.65,18.65,0,0,0-3.83,2.75,22,22,0,0,0-3.65,4.41A20.66,20.66,0,0,0,169,60.21v.09c0,.18.09.21.27.09l.9-.81q.81-.72,2-2t2.57-3a33.11,33.11,0,0,0,2.65-3.92l.45-.45a1.08,1.08,0,0,1,1.08-.18l5.22,1.17q-.81,1.26-1.44,2.43a13.54,13.54,0,0,0-.95,2.21A6.85,6.85,0,0,0,181.32,58ZM166.11,76.23a14.22,14.22,0,0,0,1.49-2q.68-1.08,1.3-2.34a1.68,1.68,0,0,0-.54-.09h-.45c-.48,0-.95,0-1.4,0s-.82,0-1.12,0a.08.08,0,0,0-.09.09,13.65,13.65,0,0,0-3.55.86,3.64,3.64,0,0,0-2.29,2.29,3,3,0,0,0-.09,1.89,2.11,2.11,0,0,0,1,1.21,2.89,2.89,0,0,0,1.71.32,5.82,5.82,0,0,0,2.07-.63l.36-.18a1.43,1.43,0,0,0,.36-.27A6.24,6.24,0,0,0,166.11,76.23Z" transform="translate(-2.35 -3.55)"/><path class="cls-1" d="M213.27,48.78a12.55,12.55,0,0,1-4,1.13,13.42,13.42,0,0,1-3.33-.13,10.8,10.8,0,0,1,0,3.42q-.09.27-.32,1.08a15.39,15.39,0,0,1-.76,2,14.12,14.12,0,0,1-1.53,2.57,17.37,17.37,0,0,1-2.52,2.7q-.36.27-.67.54a6.3,6.3,0,0,1-.58.45l-.81.54a10.73,10.73,0,0,1-2.57,1.17c-.69.18-1.19.3-1.48.36h-.09a4.88,4.88,0,0,0-.67,0,1.71,1.71,0,0,1-.67,0,5.25,5.25,0,0,1-4-1.62,5.45,5.45,0,0,1-1.8-4,16.18,16.18,0,0,1,.63-5l.36-1.08c.12-.36.24-.69.36-1a19.2,19.2,0,0,1,3.11-5.67q1.75-2.07,2.38-2.79a9.43,9.43,0,0,1,1.44-.9,5,5,0,0,1,1.35-.36,2.17,2.17,0,0,1,1.44.36l1.08.76q.45.32.9.67l.36.27h.09a2.07,2.07,0,0,1,.9,1.62,3.85,3.85,0,0,1-.18,1.35c-.06.12-.12.18-.18.18h-.09a2.24,2.24,0,0,0-1,.27,26.59,26.59,0,0,0-2.25,1.62,16.53,16.53,0,0,0-4,5.31q-.27.54-.58,1.26a8.17,8.17,0,0,0-.5,1.53l-.18,1.08a2.72,2.72,0,0,0,0,1q0,1.44,1,1.8a2.82,2.82,0,0,0,.81.18,1.54,1.54,0,0,0,.63-.09h.27a8.58,8.58,0,0,0,2-.9,11.3,11.3,0,0,0,2.79-2.52,11.42,11.42,0,0,0,.76-1.21q.31-.58.58-1a6.53,6.53,0,0,0,.58-2.21,5.25,5.25,0,0,0,0-1.3v-.18a6.56,6.56,0,0,0-1.35-3c-.12-.12-.18-.21-.18-.27a.26.26,0,0,0-.09-.18.3.3,0,0,1,.14-.27,1.39,1.39,0,0,0,.22-.18c0-.06.06-.15.18-.27l1.53-1.17.18-.09H203a33.62,33.62,0,0,0,5.27.76,28.74,28.74,0,0,0,4.81-.13.74.74,0,0,1,.32,1C213.19,48.59,213.15,48.78,213.27,48.78Z" transform="translate(-2.35 -3.55)"/><path class="cls-1" d="M226.14,28.8a4.63,4.63,0,0,1-.45.85q-.27.41-.54.86,3.51.09,6.79.13t6,0q2.75-.09,4.68-.32a7,7,0,0,0,2.66-.67l.09-.09c.18,0,.27,0,.27.09a9.52,9.52,0,0,1,.45,1.21,3.71,3.71,0,0,1-.09,2.12,2.5,2.5,0,0,1-1,1.58,4.24,4.24,0,0,1-1.76.63,16.43,16.43,0,0,1-2.2.13h-2.48l-2,0L233,35.1l-4.77-.18-5.54-.18-1.84,3.69q-1,2.07-2.07,4.32t-2,4.59q-.95,2.34-1.76,4.5-.36,1-.67,2.07T213.81,56q-.18.72-.36,1.39t-.36,1.4l1.21-1.26q1.13-1.17,2.75-2.79l3.42-3.42q1.8-1.8,3.15-3.33l2.25.09q-2.25,3.06-4.59,6-2,2.61-4.27,5.54t-4.19,5.27l-.27.27a.18.18,0,0,0-.13,0,.37.37,0,0,1-.23,0h-.36v-.09l-3.24-1.08a1.93,1.93,0,0,1-1.17-1,6.63,6.63,0,0,1-.36-1.12,4.28,4.28,0,0,1,0-.58,4.59,4.59,0,0,0,0-.67A64.64,64.64,0,0,1,208.23,54q.72-3.33,1.58-6.12t1.62-4.9q.76-2.11,1.21-3.11.36-.81,1-2.52t1.13-2.7q-2.88,0-4.46.09A16.1,16.1,0,0,0,208,35a2.08,2.08,0,0,0-1.12.54l-.77.9c-.12.12-.22.17-.31.13s-.13-.07-.13-.13a5.11,5.11,0,0,1-.9-1.39,3.28,3.28,0,0,1-.09-2.29,3.48,3.48,0,0,1,.81-1.53A4.76,4.76,0,0,1,207,30.11a6.69,6.69,0,0,1,2.83-.5,5.32,5.32,0,0,1,.86,0l.76.13q.54.09,1.75.23t3.83.22q.63-1.26,1.3-2.52t1.4-2.52l.4-.41a1.3,1.3,0,0,1,.68-.31,1.81,1.81,0,0,1,1.26.27l3.51,1.62a1.76,1.76,0,0,1,.81.81A1.56,1.56,0,0,1,226.14,28.8Z" transform="translate(-2.35 -3.55)"/><path class="cls-1" d="M94.85,85.8a4.63,4.63,0,0,1-.45.85q-.27.41-.54.86,3.51.09,6.79.13t6,0q2.75-.09,4.68-.32a7,7,0,0,0,2.66-.67l.09-.09c.18,0,.27,0,.27.09a9.52,9.52,0,0,1,.45,1.21,3.71,3.71,0,0,1-.09,2.12,2.5,2.5,0,0,1-1,1.58,4.24,4.24,0,0,1-1.76.63,16.43,16.43,0,0,1-2.2.13h-2.48l-2,0-3.56-.13L97,91.92l-5.54-.18-1.84,3.69q-1,2.07-2.07,4.32t-2,4.59q-.95,2.34-1.76,4.5-.36,1-.67,2.07T82.52,113q-.18.72-.36,1.39t-.36,1.4L83,114.51q1.13-1.17,2.75-2.79l3.42-3.42q1.8-1.8,3.15-3.33l2.25.09q-2.25,3.06-4.59,6-2,2.61-4.27,5.54t-4.19,5.27l-.27.27a.18.18,0,0,0-.13,0,.37.37,0,0,1-.23,0h-.36v-.09l-3.24-1.08a1.93,1.93,0,0,1-1.17-1,6.63,6.63,0,0,1-.36-1.12,4.28,4.28,0,0,1,0-.58,4.59,4.59,0,0,0,0-.67A64.64,64.64,0,0,1,76.94,111q.72-3.33,1.58-6.12t1.62-4.9q.76-2.11,1.21-3.11.36-.81,1-2.52t1.13-2.7q-2.88,0-4.46.09a16.1,16.1,0,0,0-2.38.27,2.08,2.08,0,0,0-1.12.54l-.77.9c-.12.12-.22.17-.31.13s-.13-.07-.13-.13a5.11,5.11,0,0,1-.9-1.39,3.28,3.28,0,0,1-.09-2.29,3.48,3.48,0,0,1,.81-1.53,4.76,4.76,0,0,1,1.58-1.12,6.69,6.69,0,0,1,2.83-.5,5.32,5.32,0,0,1,.86,0l.76.13q.54.09,1.75.23t3.83.22q.63-1.26,1.3-2.52t1.4-2.52l.4-.41a1.3,1.3,0,0,1,.68-.31,1.81,1.81,0,0,1,1.26.27l3.51,1.62a1.76,1.76,0,0,1,.81.81A1.56,1.56,0,0,1,94.85,85.8Z" transform="translate(-2.35 -3.55)"/><path class="cls-1" d="M105.56,115.5q1.53-1.71,3.15-3.42,1.26-1.53,2.75-3.37a32.22,32.22,0,0,0,2.56-3.64h2.25q-1.53,3-3.15,5.94-1.44,2.52-3.24,5.4a53.11,53.11,0,0,1-3.69,5.22,1.53,1.53,0,0,1-.9.5l-.63,0q-.81-.27-2.52-.72a12.26,12.26,0,0,1-2.7-1,.77.77,0,0,1-.36-.63q-.09-.72-.13-2.12a17.85,17.85,0,0,1,.13-2.83q-.72,1.35-1.53,2.61-.72,1.08-1.62,2.34a24.54,24.54,0,0,1-1.8,2.25,1.73,1.73,0,0,1-1.35.58,4.71,4.71,0,0,1-1-.13l-4.41-1.62a1.27,1.27,0,0,1-.95-1q-.13-.72-.13-.81a35.44,35.44,0,0,1,.58-4,20.2,20.2,0,0,1,1.89-5.36,19.52,19.52,0,0,1,3.92-5.17,15.45,15.45,0,0,1,6.57-3.6,2,2,0,0,0,.41-.09,1.67,1.67,0,0,1,.76,0l6,1a.4.4,0,0,1,.45.45q0,.27-.45.45a23.25,23.25,0,0,0-3.15,1.48A19.1,19.1,0,0,0,99.53,107a23.45,23.45,0,0,0-3.6,4.37,21.7,21.7,0,0,0-2.7,6.3l.09.09c0,.18.06.21.18.09a4.75,4.75,0,0,0,.9-.72q.81-.72,2-2t2.61-3a33.23,33.23,0,0,0,2.66-3.92,2.2,2.2,0,0,1,.4-.5,1.05,1.05,0,0,1,1-.13l5.22,1.17q-.81,1.26-1.44,2.43a14.3,14.3,0,0,0-.95,2.16A6.67,6.67,0,0,0,105.56,115.5Z" transform="translate(-2.35 -3.55)"/><path class="cls-1" d="M133.55,106.77c-.3.42-.53.75-.67,1s-.37.57-.67,1l-1.71.27q-1.08.18-2.21.41l-2.12.45c-.66.15-1.17.26-1.53.32q-.09.81-.18,1.67a15.14,15.14,0,0,1-.27,1.67c-.06.18-.23.8-.5,1.84a16.69,16.69,0,0,1-1.35,3.42,13.38,13.38,0,0,1-2.47,3.38,6,6,0,0,1-4,1.71,5.31,5.31,0,0,1-4.91-2,4.75,4.75,0,0,1-.94-2.29,5.59,5.59,0,0,1,.36-2.75.3.3,0,0,0,.09-.23.5.5,0,0,1,.18-.31c0-.06,0-.09,0-.09s0,0,0-.09l.18-.36.09-.09q.36-.54,1-1.31a11.76,11.76,0,0,1,1.62-1.57,17.8,17.8,0,0,1,2.43-1.58q1.26-.68,2.52-1.31a19.24,19.24,0,0,0-.13-3.64q-.23-1.39-.32-1.75-1.53,2.07-3.06,3.83t-2.79,3.28q-1.35,1.8-2.16,2.7a13.14,13.14,0,0,0-.81,1.08l-.63-2.16q1.08-1.44,2.25-3.24t2.25-3.51q1.08-1.71,1.89-3.15t1.26-2.16c.12-.24.25-.5.4-.76s.28-.53.41-.77c-.12-.36-.17-.55-.13-.58a1.52,1.52,0,0,0,0-.58,1.73,1.73,0,0,1,.22-1.35,2.15,2.15,0,0,1,1.4-1,7.48,7.48,0,0,1,2.52-.36c.3,0,.67,0,1.13,0s.88,0,1.31,0c.18.18.27.3.27.36a2,2,0,0,0-.27.76,3.49,3.49,0,0,0,0,1.13c.06.24,0,.21,0-.09s-.11-.33,0-.09l.36,1.8v.09q.36,2.07.67,4.05a20.9,20.9,0,0,1,.23,4.14q1.26-.27,2.79-.5l2.88-.41Zm-16.38,12.15a22.21,22.21,0,0,0,.86-3.15q.31-1.62.5-3.15a18.2,18.2,0,0,0-2.66,1.8,12.46,12.46,0,0,0-1.4,1.35,2.17,2.17,0,0,0-.31.41,2,2,0,0,1-.32.4,19,19,0,0,0-.72,1.8.38.38,0,0,0-.09.27v.72a.37.37,0,0,0,.09.27v.18a1.53,1.53,0,0,0,1.26,1.26,1.94,1.94,0,0,0,.77,0,2,2,0,0,0,1.13-.67,4.72,4.72,0,0,1,.45-.72A3.49,3.49,0,0,0,117.17,118.92Z" transform="translate(-2.35 -3.55)"/><path class="cls-1" d="M144.79,85.8a4.63,4.63,0,0,1-.45.85q-.27.41-.54.86,3.51.09,6.79.13t6,0q2.75-.09,4.68-.32a7,7,0,0,0,2.66-.67l.09-.09c.18,0,.27,0,.27.09a9.52,9.52,0,0,1,.45,1.21,3.71,3.71,0,0,1-.09,2.12,2.5,2.5,0,0,1-1,1.58,4.24,4.24,0,0,1-1.76.63,16.43,16.43,0,0,1-2.2.13h-2.48l-2,0-3.56-.13-4.77-.18-5.54-.18-1.84,3.69q-1,2.07-2.07,4.32t-2,4.59q-.95,2.34-1.76,4.5-.36,1-.67,2.07t-.58,2.07q-.18.72-.36,1.39t-.36,1.4l1.21-1.26q1.13-1.17,2.75-2.79l3.42-3.42q1.8-1.8,3.15-3.33l2.25.09q-2.25,3.06-4.59,6-2,2.61-4.27,5.54t-4.19,5.27l-.27.27a.18.18,0,0,0-.13,0,.37.37,0,0,1-.23,0h-.36v-.09l-3.24-1.08a1.93,1.93,0,0,1-1.17-1,6.63,6.63,0,0,1-.36-1.12,4.28,4.28,0,0,1,0-.58,4.59,4.59,0,0,0,0-.67,64.64,64.64,0,0,1,1.08-6.66q.72-3.33,1.58-6.12t1.62-4.9q.76-2.11,1.21-3.11.36-.81,1-2.52t1.13-2.7q-2.88,0-4.46.09a16.1,16.1,0,0,0-2.38.27,2.08,2.08,0,0,0-1.12.54l-.77.9c-.12.12-.22.17-.31.13s-.13-.07-.13-.13a5.11,5.11,0,0,1-.9-1.39,3.28,3.28,0,0,1-.09-2.29,3.48,3.48,0,0,1,.81-1.53,4.76,4.76,0,0,1,1.58-1.12,6.69,6.69,0,0,1,2.83-.5,5.32,5.32,0,0,1,.86,0l.76.13q.54.09,1.75.23t3.83.22q.63-1.26,1.3-2.52t1.4-2.52l.4-.41a1.3,1.3,0,0,1,.68-.31,1.81,1.81,0,0,1,1.26.27l3.51,1.62a1.76,1.76,0,0,1,.81.81A1.56,1.56,0,0,1,144.79,85.8Z" transform="translate(-2.35 -3.55)"/><path class="cls-1" d="M144.7,119.1a3.34,3.34,0,0,0,2.21-.23,10.34,10.34,0,0,0,2.34-1.48,21.3,21.3,0,0,0,2.39-2.29q1.17-1.3,2.25-2.66a73.38,73.38,0,0,0,5-7.47l2.25.09q-.36.81-.9,1.8-.9,1.62-2.88,4.77-.45.72-.9,1.35t-.9,1.35a3,3,0,0,1-.18.32l-.27.41a2.56,2.56,0,0,1-.45.54,1,1,0,0,0-.18.27,1.22,1.22,0,0,1-.23.32l-.22.22a22.11,22.11,0,0,1-2.12,2.47,11.89,11.89,0,0,1-3.74,2.66l-.9.45a.37.37,0,0,0-.27.09.51.51,0,0,0-.36.09q-.45.09-.9.13a9,9,0,0,1-.9,0c-.3,0-.63,0-1,0a8.94,8.94,0,0,1-1-.13,6.16,6.16,0,0,1-4.09-2.61,7.44,7.44,0,0,1-1-4.19,14.47,14.47,0,0,1,1-4.63,17.26,17.26,0,0,1,2.16-4,29.61,29.61,0,0,1,2.79-3.56,17,17,0,0,1,2.61-2.21,6.76,6.76,0,0,1,1.26-.72,4,4,0,0,1,1.26-.18,2.38,2.38,0,0,1,1.53.72q.72.72,1.4,1.35t1.13,1.08l1,1a1.16,1.16,0,0,1,.27.54,2.65,2.65,0,0,1,0,.86,3.62,3.62,0,0,1-.5,1.3,16.72,16.72,0,0,1-2.16,3.51,2.81,2.81,0,0,1-.54.72,15.8,15.8,0,0,1-2.07,1.89,10.42,10.42,0,0,1-3.46,1.8,19.77,19.77,0,0,1-2.39.54q-.72,1.8.09,2.7A2,2,0,0,0,144.7,119.1Zm-.72-5.58a1.93,1.93,0,0,1-.36.63,9.9,9.9,0,0,0,3.65-2.57,21.37,21.37,0,0,0,1.93-2.38,11.64,11.64,0,0,0,1-1.58,3.3,3.3,0,0,0,.45-1.48q-1.35,1.26-2.52,2.52L146,111A18.19,18.19,0,0,0,144,113.52Z" transform="translate(-2.35 -3.55)"/></svg>