<svg id="Laag_1" data-name="Laag 1" xmlns="http://www.w3.org/2000/svg" viewBox="0 0 310.76 136.86"><defs><style>.cls-1{fill:#060606;}</style></defs><title>greatalbum</title><path class="cls-1" d="M2.57,34.55a31.33,31.33,0,0,1,.77-5.08,38.09,38.09,0,0,1,1.39-4.64A32.47,32.47,0,0,1,6.35,21a34.37,34.37,0,0,1,1.89-3.33,3,3,0,0,1,.63-1.08,14.18,14.18,0,0,1,1.53-2.21l1.44-1.67a41.25,41.25,0,0,1,3.24-3.24,30.14,30.14,0,0,1,4.1-3.1A23.38,23.38,0,0,1,23.94,4a16.36,16.36,0,0,1,5.45-.9,5.79,5.79,0,0,1,1.8.5A3.37,3.37,0,0,1,32.67,5,5,5,0,0,1,33.3,7.5a11.19,11.19,0,0,1-.86,4q-.27.63-.45,1.17a3.41,3.41,0,0,1-.63,1.08q1.8-.72,3.6-1.62.9-.63,1.84-1.26a3.82,3.82,0,0,0,1.4-1.62q.18-.54.45-.27a4.19,4.19,0,0,1,2.79,3.33,3.07,3.07,0,0,1-.18,2.07,5.94,5.94,0,0,1-1.21,1.75,8.76,8.76,0,0,1-1.75,1.35,17.47,17.47,0,0,1-1.8.95,41.23,41.23,0,0,1-6.39,2,48.22,48.22,0,0,1-6.48,1,3.34,3.34,0,0,1-1.44-.09H22a2.49,2.49,0,0,1-1.44-.9,3.94,3.94,0,0,1-.63-1.35,5.68,5.68,0,0,1-.18-1.39,5.84,5.84,0,0,1,.09-1.12A1.46,1.46,0,0,1,20.3,16a1.22,1.22,0,0,0,.81-.18,2,2,0,0,0,.63-.09A17.8,17.8,0,0,0,25.65,13,14.14,14.14,0,0,0,29.3,7.28h-.63l-1.4.27a10.8,10.8,0,0,0-2.07.72,17.16,17.16,0,0,0-2.61,1.49,24.49,24.49,0,0,0-3,2.47,32.88,32.88,0,0,0-3,3.51,37.33,37.33,0,0,0-3,4.86q-.81,1.53-1.75,3.69a34,34,0,0,0-1.67,4.86q-.27.81-.77,3a21.33,21.33,0,0,0-.5,4.68,11.26,11.26,0,0,0,.9,4.54,4.05,4.05,0,0,0,3.42,2.43,13,13,0,0,0,1.75.09,9.13,9.13,0,0,0,2.61-.45A14.22,14.22,0,0,0,20.75,42a18.07,18.07,0,0,0,3.6-3,5.39,5.39,0,0,0,.58-.68q.22-.31.58-.76.72-1.89,1.35-3.92t1.08-4.09a2.47,2.47,0,0,1,.32-.45c.15-.18.41-.21.76-.09q.81.36,1.53.63a8.12,8.12,0,0,1,1.44.72q.63.18.54,1.08-1.35,4.77-3.33,9.9a70.36,70.36,0,0,1-4.68,9.81q3.51,0,6.75,0t5.85-.27a28.9,28.9,0,0,0,4.41-.68,4.22,4.22,0,0,0,2.34-1.17.37.37,0,0,1,.36-.13.56.56,0,0,1,.27.13,4.82,4.82,0,0,1,.9,1.62,4.09,4.09,0,0,1-.09,2.79,5.22,5.22,0,0,1-.9,1.71,5.06,5.06,0,0,1-1.58,1.31A6.49,6.49,0,0,1,40,57a45.49,45.49,0,0,1-9.27.13q-4.77-.4-9.63-.95a23.87,23.87,0,0,1-5,4.59,13.2,13.2,0,0,1-4,1.85,6.24,6.24,0,0,1-3.06,0A7.3,7.3,0,0,1,7,61.82a8,8,0,0,1-1.62-1.75,11.94,11.94,0,0,1-1-1.76,12.82,12.82,0,0,1-.54-1.39,4.49,4.49,0,0,1-.18-.68,4.86,4.86,0,0,0,0-.67,1.24,1.24,0,0,1,0-.59A3.51,3.51,0,0,1,5,52.41a8.8,8.8,0,0,1,2.39-1.3,10.81,10.81,0,0,1,3.24-.45q1.8.09,3.56.14t3.55.13q1-1.26,1.8-2.52.63-.81,1.13-1.57t.95-1.57a15,15,0,0,1-4.18,1.66,24.2,24.2,0,0,1-3.47.5,15.29,15.29,0,0,1-3.33-.18A10.48,10.48,0,0,1,5.13,44a10.14,10.14,0,0,1-2.48-6.71A5.58,5.58,0,0,1,2.48,36V34.64ZM12.92,56.42c.12-.12.3-.29.54-.5a2.31,2.31,0,0,0,.54-.67,1,1,0,0,1-.45-.09A5.64,5.64,0,0,0,12.2,55a5.71,5.71,0,0,1-1.08-.09,4.64,4.64,0,0,0-1.08,0A1.7,1.7,0,0,0,9.5,55q-1.71.45-1.17,2.43h.09q.45,1,1.26.86A2.78,2.78,0,0,0,11,57.68,5.55,5.55,0,0,0,12,57,7.93,7.93,0,0,1,12.92,56.42Z" transform="translate(-2.48 -3.14)"/><path class="cls-1" d="M44,29.6a5.59,5.59,0,0,1,.58-.81c.21-.24.4-.48.58-.72a6.93,6.93,0,0,0,.63-.72,7.82,7.82,0,0,1-2.29,1.13,17.22,17.22,0,0,1-2.48.58q-1.89,2.61-4,5.22T33.26,39q-1.35,1.8-2.16,2.7a13.31,13.31,0,0,0-.81,1.08l-.63-2.16q1.08-1.44,2.25-3.28t2.25-3.6q1.08-1.75,1.89-3.24t1.26-2.2c.12-.24.26-.5.4-.77s.29-.52.41-.76a1.68,1.68,0,0,1,.41-.45,1.16,1.16,0,0,1,.95-.18,12.22,12.22,0,0,0,3.92-.27,16.5,16.5,0,0,0,2.92-.9q1.26-.63,1.89-.18a9.13,9.13,0,0,1,2,1.58L51.89,28a.74.74,0,0,1,.18.54A.72.72,0,0,1,52,29a17.21,17.21,0,0,0-1.17,1.67q-.72,1.13-1.53,2.52t-1.62,3.06a27,27,0,0,0-1.35,3.29,11,11,0,0,0,1.21-1.08L50,36q1.44-1.39,3.11-3.15t3.1-3.47l2.25.09-4.32,5.76q-1.8,2.43-4,5.26T46,45.71h-.09v.09h-.09l-.09.09c-.06.06-.11.09-.13.09s-.08,0-.14.09h-.09c-.42.24-.72.27-.9.09q-.72-.18-1.58-.45A11.81,11.81,0,0,1,41.18,45c-.06,0-.09,0-.09,0s0,0-.09,0a2.52,2.52,0,0,1-1.26-1.62,1.59,1.59,0,0,1-.18-.72v-.63a42.17,42.17,0,0,1,.72-5,18.08,18.08,0,0,1,2.88-6.21Z" transform="translate(-2.48 -3.14)"/><path class="cls-1" d="M58.18,43.55a3.34,3.34,0,0,0,2.21-.22,10.38,10.38,0,0,0,2.34-1.48,21.39,21.39,0,0,0,2.39-2.29q1.17-1.3,2.25-2.66a73.32,73.32,0,0,0,5-7.47l2.25.09q-.36.81-.9,1.8-.9,1.62-2.88,4.77c-.3.48-.6.93-.9,1.35s-.6.87-.9,1.35a3,3,0,0,1-.18.31l-.27.41a2.59,2.59,0,0,1-.45.54,1,1,0,0,0-.18.27,1.24,1.24,0,0,1-.23.32l-.22.22a22.2,22.2,0,0,1-2.12,2.47A11.87,11.87,0,0,1,61.69,46l-.9.45a.37.37,0,0,0-.27.09.51.51,0,0,0-.36.09q-.45.09-.9.13c-.3,0-.6,0-.9,0s-.63,0-1,0a9.43,9.43,0,0,1-1-.13A6.16,6.16,0,0,1,52.29,44a7.45,7.45,0,0,1-1-4.19,14.46,14.46,0,0,1,1-4.63,17.27,17.27,0,0,1,2.16-4.05,29.63,29.63,0,0,1,2.79-3.56,17,17,0,0,1,2.61-2.21,6.76,6.76,0,0,1,1.26-.72,4,4,0,0,1,1.26-.18,2.38,2.38,0,0,1,1.53.72q.72.72,1.4,1.35t1.13,1.08l1,1a1.16,1.16,0,0,1,.27.54,2.65,2.65,0,0,1,0,.86,3.61,3.61,0,0,1-.5,1.3A16.72,16.72,0,0,1,65,34.82a2.81,2.81,0,0,1-.54.72,15.87,15.87,0,0,1-2.07,1.89A10.41,10.41,0,0,1,59,39.23a19.83,19.83,0,0,1-2.39.54q-.72,1.8.09,2.7A2,2,0,0,0,58.18,43.55ZM57.46,38a1.94,1.94,0,0,1-.36.63A9.9,9.9,0,0,0,60.75,36a21.28,21.28,0,0,0,1.93-2.38,11.62,11.62,0,0,0,1-1.57,3.3,3.3,0,0,0,.45-1.48q-1.35,1.26-2.52,2.52l-2.16,2.34A18.13,18.13,0,0,0,57.46,38Z" transform="translate(-2.48 -3.14)"/><path class="cls-1" d="M85.9,39.95q1.53-1.71,3.15-3.42Q90.31,35,91.8,33.15a32.18,32.18,0,0,0,2.56-3.65h2.25q-1.53,3-3.15,5.94Q92,38,90.22,40.85a53.1,53.1,0,0,1-3.69,5.22,1.53,1.53,0,0,1-.9.5l-.63,0q-.81-.27-2.52-.72a12.16,12.16,0,0,1-2.7-1,.77.77,0,0,1-.36-.63c-.06-.48-.11-1.18-.13-2.12a17.86,17.86,0,0,1,.13-2.84q-.72,1.35-1.53,2.61-.72,1.08-1.62,2.34a24.81,24.81,0,0,1-1.8,2.25,1.74,1.74,0,0,1-1.35.58,4.71,4.71,0,0,1-1-.13l-4.41-1.62a1.27,1.27,0,0,1-.95-1c-.09-.48-.13-.75-.13-.81a35.43,35.43,0,0,1,.58-4,20.18,20.18,0,0,1,1.89-5.36A19.5,19.5,0,0,1,73,29a15.45,15.45,0,0,1,6.57-3.6,2,2,0,0,0,.41-.09,1.67,1.67,0,0,1,.76,0l6,1a.4.4,0,0,1,.45.45q0,.27-.45.45a23.25,23.25,0,0,0-3.15,1.48,19.12,19.12,0,0,0-3.78,2.79,23.49,23.49,0,0,0-3.6,4.37,21.72,21.72,0,0,0-2.7,6.3l.09.09c0,.18.06.21.18.09a4.74,4.74,0,0,0,.9-.72q.81-.72,2-2t2.61-3A33.17,33.17,0,0,0,82,32.65a2.2,2.2,0,0,1,.4-.49,1.05,1.05,0,0,1,1-.13l5.22,1.17q-.81,1.26-1.44,2.43a14.26,14.26,0,0,0-.95,2.16A6.66,6.66,0,0,0,85.9,39.95Z" transform="translate(-2.48 -3.14)"/><path class="cls-1" d="M110.38,10.25a4.63,4.63,0,0,1-.45.85q-.27.41-.54.86,3.51.09,6.79.13t6,0q2.75-.09,4.68-.32a7,7,0,0,0,2.66-.67l.09-.09c.18,0,.27,0,.27.09a9.52,9.52,0,0,1,.45,1.21,3.71,3.71,0,0,1-.09,2.12,2.5,2.5,0,0,1-1,1.58,4.24,4.24,0,0,1-1.76.63,16.43,16.43,0,0,1-2.2.13H122.8l-2,0-3.56-.13-4.77-.18L107,16.19l-1.84,3.69q-1,2.07-2.07,4.32t-2,4.59q-.95,2.34-1.76,4.5-.36,1-.67,2.07t-.58,2.07q-.18.72-.36,1.39c-.12.45-.24.92-.36,1.39L98.55,39q1.13-1.17,2.75-2.79l3.42-3.42q1.8-1.8,3.15-3.33l2.25.09q-2.25,3.06-4.59,6-2,2.61-4.27,5.54t-4.19,5.27l-.27.27a.18.18,0,0,0-.13,0,.37.37,0,0,1-.23,0h-.36v-.09l-3.24-1.08a1.94,1.94,0,0,1-1.17-1,6.66,6.66,0,0,1-.36-1.12,4.29,4.29,0,0,1,0-.59,4.57,4.57,0,0,0,0-.67,64.64,64.64,0,0,1,1.08-6.66q.72-3.33,1.58-6.12t1.62-4.9q.76-2.11,1.21-3.11.36-.81,1-2.52T99,16.1q-2.88,0-4.46.09a16.1,16.1,0,0,0-2.38.27,2.08,2.08,0,0,0-1.12.54l-.77.9c-.12.12-.22.17-.31.13s-.13-.07-.13-.13A5.11,5.11,0,0,1,89,16.5a3.28,3.28,0,0,1-.09-2.29,3.48,3.48,0,0,1,.81-1.53,4.76,4.76,0,0,1,1.58-1.12,6.69,6.69,0,0,1,2.83-.5,5.32,5.32,0,0,1,.86,0l.76.13q.54.09,1.75.23t3.83.22q.63-1.26,1.3-2.52T104,6.65l.4-.41a1.3,1.3,0,0,1,.68-.31,1.81,1.81,0,0,1,1.26.27l3.51,1.62a1.76,1.76,0,0,1,.81.81A1.56,1.56,0,0,1,110.38,10.25Z" transform="translate(-2.48 -3.14)"/><path class="cls-1" d="M138.37,39.95q1.53-1.71,3.15-3.42,1.26-1.53,2.75-3.37a32.18,32.18,0,0,0,2.56-3.65h2.25q-1.53,3-3.15,5.94-1.44,2.52-3.24,5.4A53.1,53.1,0,0,1,139,46.07a1.53,1.53,0,0,1-.9.5l-.63,0q-.81-.27-2.52-.72a12.16,12.16,0,0,1-2.7-1,.77.77,0,0,1-.36-.63c-.06-.48-.11-1.18-.13-2.12a17.86,17.86,0,0,1,.13-2.84q-.72,1.35-1.53,2.61-.72,1.08-1.62,2.34a24.81,24.81,0,0,1-1.8,2.25,1.74,1.74,0,0,1-1.35.58,4.71,4.71,0,0,1-1-.13l-4.41-1.62a1.27,1.27,0,0,1-.95-1c-.09-.48-.13-.75-.13-.81a35.43,35.43,0,0,1,.58-4,20.18,20.18,0,0,1,1.89-5.36A19.5,19.5,0,0,1,125.5,29a15.45,15.45,0,0,1,6.57-3.6,2,2,0,0,0,.41-.09,1.67,1.67,0,0,1,.76,0l6,1a.4.4,0,0,1,.45.45q0,.27-.45.45a23.25,23.25,0,0,0-3.15,1.48,19.12,19.12,0,0,0-3.78,2.79,23.49,23.49,0,0,0-3.6,4.37,21.72,21.72,0,0,0-2.7,6.3l.09.09c0,.18.06.21.18.09a4.74,4.74,0,0,0,.9-.72q.81-.72,2-2t2.61-3a33.17,33.17,0,0,0,2.66-3.92,2.2,2.2,0,0,1,.4-.49,1.05,1.05,0,0,1,1-.13l5.22,1.17q-.81,1.26-1.44,2.43a14.26,14.26,0,0,0-.95,2.16A6.66,6.66,0,0,0,138.37,39.95Z" transform="translate(-2.48 -3.14)"/><path class="cls-1" d="M160.51,9.35a8.12,8.12,0,0,1,.81.95,5.14,5.14,0,0,1,.63,1.21,9.71,9.71,0,0,1,.68,3.1,16.39,16.39,0,0,1-.5,4.64,13.71,13.71,0,0,1-1.84,4.36,29.8,29.8,0,0,1-2.84,3.74,30,30,0,0,1-3.15,3.06q-1.62,1.35-2.7,2.16c-.06.12-.12.26-.18.41s-.12.31-.18.49q-.36,1-.67,2c-.21.69-.4,1.39-.58,2.12q-.18.72-.36,1.35c-.12.42-.24.87-.36,1.35l1.3-1.3,2.83-2.83,3.38-3.37q1.75-1.75,2.92-3l2.25.09q-2.25,3-4.59,5.94-2,2.61-4.23,5.49t-4.23,5.22l-.18.18a.53.53,0,0,1-.36.09c-.12.06-.19.07-.22,0a.18.18,0,0,0-.13,0h-.09l-3.15-1.08a2.31,2.31,0,0,1-1.17-1.08,5.65,5.65,0,0,1-.36-1.08c0-.6,0-1.32.09-2.16s.18-1.83.36-3q.36-2.34.9-4.46T145.66,30q.63-2,1.26-3.87.54-1.53,1.17-3.06t1.35-3.24A75.73,75.73,0,0,1,153.22,12q1.53-2.61,1.8-3V9l.09-.18a10.51,10.51,0,0,1,1.35-1.08,1.91,1.91,0,0,1,2.16.09,1.16,1.16,0,0,1,.22.13.94.94,0,0,0,.22.14q.36.27.72.58C160,8.88,160.27,9.11,160.51,9.35Zm-2.16,13a11.88,11.88,0,0,0,.86-3.24,7.52,7.52,0,0,0-.14-2.52q-1.44,2.61-3.06,5.85t-3.15,6.84a32.49,32.49,0,0,0,3-3.06A14.88,14.88,0,0,0,158.35,22.31Z" transform="translate(-2.48 -3.14)"/><path class="cls-1" d="M178.33,30.23l.36.54a12.39,12.39,0,0,1,.41,1.3,3.65,3.65,0,0,1-.23,2.12q-.63,1.53-1.71,3.69A22.27,22.27,0,0,1,174.5,42,17.74,17.74,0,0,1,171,45.3a7.48,7.48,0,0,1-4.41,1.39,1.07,1.07,0,0,1-.67-.18c-.15-.12-.22-.21-.22-.27l-1.71-3.78a10.24,10.24,0,0,0,3.42-2.34,21.71,21.71,0,0,0,3-3.91,28.24,28.24,0,0,0,2.79-6.8,1.12,1.12,0,0,0-1.26-.36,9.16,9.16,0,0,0-2.25,1,27,27,0,0,0-3.87,2.88,47.19,47.19,0,0,0-2,6.62,34.35,34.35,0,0,0-.81,6.34c-.06.24-.15.38-.27.41s-.18,0-.18,0l-3.33-1.08A2.32,2.32,0,0,1,158,44.09a2.83,2.83,0,0,1-.27-1.08,42,42,0,0,1,.36-4.54A52.35,52.35,0,0,1,159.66,31a91.26,91.26,0,0,1,3.55-10.13A107.25,107.25,0,0,1,169.6,8.18c0-.06.06-.15.18-.27a4,4,0,0,1,.72-.5,1.63,1.63,0,0,1,1.44,0,.19.19,0,0,1,.13,0,.18.18,0,0,0,.13,0,.26.26,0,0,0,.18.09.27.27,0,0,1,.18.09A9.12,9.12,0,0,1,174.33,9a6.93,6.93,0,0,1,1.75,2.7,9,9,0,0,1,.45,4.32,9.71,9.71,0,0,1-1.12,4,14,14,0,0,1-2.16,3A12.51,12.51,0,0,1,170.68,25a16.58,16.58,0,0,1-2.25,1.17,14.2,14.2,0,0,0-1,2.25q1.08-1.08,2.25-2.07a4.07,4.07,0,0,1,2.16-1.08,2.78,2.78,0,0,1,1.35.5A17,17,0,0,1,174.91,27a22.61,22.61,0,0,1,1.8,1.62Zm-4.77-14.31q-.9,1.62-1.94,3.6t-2,4.14A12.15,12.15,0,0,0,172,21.59a7.78,7.78,0,0,0,1.8-3.42V18a5.28,5.28,0,0,0,.18-1.26v-.9q-.09-.27-.36,0Z" transform="translate(-2.48 -3.14)"/><path class="cls-1" d="M191.74,43.28a4.63,4.63,0,0,1-.27-1.44q.18-1.35.54-3.06-1.17,1.35-2.38,2.56t-2.21,2.16q-1,.95-1.67,1.53c-.45.39-.74.65-.86.77s-.3.21-.36.09h-.09l-.72-.18-1.21-.49q-.58-.23-1.21-.41a2.47,2.47,0,0,1-1.53-2.25,27.48,27.48,0,0,1,1.94-9.18A53.2,53.2,0,0,1,186,24.92a4.63,4.63,0,0,1,1-.9,1.1,1.1,0,0,1,1.26.09,8.17,8.17,0,0,1,.95.67q.49.41.95.86a14.2,14.2,0,0,1,1.08,1l1.08,1.08a3.64,3.64,0,0,1-.45.54,3.8,3.8,0,0,0-.72,1A39.19,39.19,0,0,0,187.69,35a29.09,29.09,0,0,0-2.16,6.25q-.09.45.36.22a6.51,6.51,0,0,0,1.26-.95A19.83,19.83,0,0,0,189,38.64q1-1.22,2.11-2.66a19,19,0,0,0,1.35-1.71l1.26-1.8.95-1.44q.58-.9,1-1.62a1,1,0,0,1,.18-.27,1.07,1.07,0,0,0,.18-.27l.86-1.35a11.71,11.71,0,0,1,.85-1.17A8.81,8.81,0,0,1,198.85,25q.63-.63,1.08-.45c.06,0,.09,0,.09,0s0,0,.09,0a10,10,0,0,1,2.07,1.58A15.5,15.5,0,0,1,203.8,28a.78.78,0,0,1,.27.54.61.61,0,0,1-.18.45l-1.08,1.62q-.72,1.08-1.53,2.52t-1.62,3.11a27.14,27.14,0,0,0-1.35,3.29,8.32,8.32,0,0,1,1.13-1.12q1-.95,2.52-2.34t3.15-3.1q1.66-1.71,3.11-3.42h2.25q-2.07,2.79-4.32,5.67L202,40.44q-2.21,2.84-4.1,5.18v.09h-.09v.09h-.09c-.12.12-.21.18-.27.18a.08.08,0,0,0-.09.09.94.94,0,0,1-.59.13,2.15,2.15,0,0,0-.4,0q-.63-.18-1.49-.49a16.7,16.7,0,0,1-1.75-.77c-.12,0-.18,0-.18-.09A2.17,2.17,0,0,1,191.74,43.28Z" transform="translate(-2.48 -3.14)"/><path class="cls-1" d="M233.14,39.95l1.22-1.12q1.12-1,2.7-2.56t3.33-3.33q1.75-1.8,3.2-3.51l2.25.09q-2.25,3-4.59,5.94-2,2.52-4.23,5.45t-4.23,5.26l-.09.09-.09.09c-.06.06-.11.09-.13.09s-.08,0-.13.09h-.09a1,1,0,0,1-.58.13,2,2,0,0,0-.41,0q-.63-.18-1.49-.5T228,45.44a.27.27,0,0,0-.18-.09,2.52,2.52,0,0,1-1.26-1.62,3.37,3.37,0,0,1-.27-1.35q.09-1.26.32-2.7a22.1,22.1,0,0,1,.72-3.06,19.86,19.86,0,0,1,1.44-3.42,26.15,26.15,0,0,1,2.56-3.87,19.06,19.06,0,0,0-3.78,3.42,36,36,0,0,0-3.73,5.17,54.19,54.19,0,0,0-4,8.23c-.06.18-.14.27-.23.27h-.22l-3.24-1.08A2.43,2.43,0,0,1,214.69,43a30.85,30.85,0,0,1,1.08-6.66l.63-1.58q.27-.67.54-1.21a15.4,15.4,0,0,1,1.13-2,22.55,22.55,0,0,1,1.67-2.2,17.77,17.77,0,0,0-3.87,3.42,35.91,35.91,0,0,0-3.74,5.17,49.58,49.58,0,0,0-3.92,8.23c-.06.18-.13.27-.22.27h-.23l-3.24-1.08A2.44,2.44,0,0,1,203.08,43,27.49,27.49,0,0,1,205,33.82a53.47,53.47,0,0,1,4.28-8.46,4.38,4.38,0,0,1,.95-.85,1,1,0,0,1,1.21,0,8.08,8.08,0,0,1,.94.67q.49.41.95.86t1.08,1q.63.59,1.08,1l-.36.54a10.62,10.62,0,0,0-.81,1q-.9,1.35-1.71,2.7t-1.53,2.79Q212,34,213,32.79a30,30,0,0,1,2.38-2.48A20.38,20.38,0,0,1,217,28.7a24.8,24.8,0,0,1,2.34-1.89q.27-.18.5-.36c.15-.12.31-.24.5-.36a6.55,6.55,0,0,1,1.62-.95,1.64,1.64,0,0,1,1.35,0,13.7,13.7,0,0,1,2.07,1.67q1.08,1,1.62,1.67a.77.77,0,0,1,.27.54,1.59,1.59,0,0,1-.18.45,16.51,16.51,0,0,1-1.8,2.16,18.21,18.21,0,0,0-2.52,3.51A29.83,29.83,0,0,1,227,30.32a20.72,20.72,0,0,1,1.62-1.62A24.82,24.82,0,0,1,231,26.81c.48-.36.81-.6,1-.72a6.55,6.55,0,0,1,1.62-.95,1.64,1.64,0,0,1,1.35,0A13.65,13.65,0,0,1,237,26.76q1.08,1,1.62,1.67a.78.78,0,0,1,.27.54.61.61,0,0,1-.18.45q-.36.54-1.08,1.66t-1.53,2.52q-.81,1.4-1.62,3.06A27.27,27.27,0,0,0,233.14,39.95Z" transform="translate(-2.48 -3.14)"/><path class="cls-1" d="M279.13,29.69q-3,1.08-5.94,2t-6,1.84a14,14,0,0,1,1.31,4.28,28.79,28.79,0,0,1-.14,8,18.83,18.83,0,0,1-1.53,5.89,11,11,0,0,1-2.38,3.38,6.53,6.53,0,0,1-2.7,1.53,10.12,10.12,0,0,1-2.48.36q-.45-.09-1.08-.18a9.73,9.73,0,0,1-1.26-.27.37.37,0,0,1-.27-.09l-.63-.09a1.76,1.76,0,0,1-1.26-.9,5.77,5.77,0,0,1-.36-1.08q0-1.17.09-3.11a43.18,43.18,0,0,1,.54-4.72,45.31,45.31,0,0,1,1-5q.63-2.43,1.21-4.41t1.08-3.42q.5-1.44.76-2.07,1.71-4.5,4.63-10.49a108.37,108.37,0,0,1,8.06-13.46c.06-.06.09-.1.09-.13s0-.08.09-.13.46-.28.85-.5a1.36,1.36,0,0,1,1.31,0,.52.52,0,0,1,.36.09c.06,0,.15.06.27.18a7.38,7.38,0,0,1,1.67,1.26,6.07,6.07,0,0,1,1.48,2.7,17.85,17.85,0,0,1,.27,1.94,8.59,8.59,0,0,1-.18,2.38,10.66,10.66,0,0,1-1.62,4,17.67,17.67,0,0,1-2.52,3,15.28,15.28,0,0,1-2.75,2.07,15.48,15.48,0,0,1-2.38,1.17Q268,27,267.34,28.25t-1.26,2.61q2.79-.45,5.63-1.13t5.72-1.39ZM259.51,52.55q-.09,1.35.67,1.35t1.75-1.17a14.15,14.15,0,0,0,2-3.46,19.46,19.46,0,0,0,1.35-5.54,22.41,22.41,0,0,0,0-6.21,8.15,8.15,0,0,0-1-3,1.39,1.39,0,0,1-.18.54q-.9,2.16-2.25,6.57a73.58,73.58,0,0,0-2.25,10.26V52a1,1,0,0,1-.09.45ZM275,15.47q-1.17,1.62-2.38,3.6t-2.47,4.14a13.73,13.73,0,0,0,2.65-2.07,8.6,8.6,0,0,0,2.12-3.42v-.18q.18-.72.27-1.26a2.92,2.92,0,0,1,.18-.72v-.18c-.06-.12-.12-.17-.18-.14a.15.15,0,0,0-.09.14A.08.08,0,0,0,275,15.47Z" transform="translate(-2.48 -3.14)"/><path class="cls-1" d="M295.15,30.23a12.53,12.53,0,0,1-4,1.12,13.42,13.42,0,0,1-3.33-.13,10.8,10.8,0,0,1,0,3.42c-.06.18-.17.54-.32,1.08a15.39,15.39,0,0,1-.76,2,14.11,14.11,0,0,1-1.53,2.56,17.37,17.37,0,0,1-2.52,2.7q-.36.27-.67.54a6.5,6.5,0,0,1-.58.45l-.81.54A10.72,10.72,0,0,1,278,45.71c-.69.18-1.19.3-1.48.36h-.09a4.88,4.88,0,0,0-.67,0,1.71,1.71,0,0,1-.67,0,5.25,5.25,0,0,1-4-1.62,5.45,5.45,0,0,1-1.8-4.05,16.18,16.18,0,0,1,.63-5l.36-1.08q.18-.54.36-1a19.2,19.2,0,0,1,3.11-5.67q1.75-2.07,2.38-2.79a9.43,9.43,0,0,1,1.44-.9,5,5,0,0,1,1.35-.36,2.17,2.17,0,0,1,1.44.36l1.08.76q.45.32.9.67l.36.27h.09a2.07,2.07,0,0,1,.9,1.62,3.85,3.85,0,0,1-.18,1.35c-.06.12-.12.18-.18.18h-.09a2.24,2.24,0,0,0-1,.27A26.53,26.53,0,0,0,280,30.68a16.52,16.52,0,0,0-4,5.31q-.27.54-.58,1.26a8.15,8.15,0,0,0-.5,1.53l-.18,1.08a2.72,2.72,0,0,0,0,1c0,1,.33,1.56,1,1.8a2.82,2.82,0,0,0,.81.18,1.54,1.54,0,0,0,.63-.09h.27a8.57,8.57,0,0,0,2-.9,11.32,11.32,0,0,0,2.79-2.52A11.32,11.32,0,0,0,283,38.1q.31-.58.58-1a6.52,6.52,0,0,0,.58-2.21,5.26,5.26,0,0,0,0-1.3v-.18a6.56,6.56,0,0,0-1.35-3c-.12-.12-.18-.21-.18-.27a.26.26,0,0,0-.09-.18.3.3,0,0,1,.14-.27,1.39,1.39,0,0,0,.22-.18c0-.06.06-.15.18-.27l1.53-1.17.18-.09h.09a33.62,33.62,0,0,0,5.27.76,28.74,28.74,0,0,0,4.81-.13.74.74,0,0,1,.32,1C295.07,30,295,30.23,295.15,30.23Z" transform="translate(-2.48 -3.14)"/><path class="cls-1" d="M298.75,29.6a5.59,5.59,0,0,1,.58-.81c.21-.24.4-.48.58-.72a6.93,6.93,0,0,0,.63-.72,7.82,7.82,0,0,1-2.29,1.13,17.22,17.22,0,0,1-2.48.58q-1.89,2.61-4,5.22T288,39q-1.35,1.8-2.16,2.7a13.31,13.31,0,0,0-.81,1.08l-.63-2.16q1.08-1.44,2.25-3.28t2.25-3.6q1.08-1.75,1.89-3.24t1.26-2.2c.12-.24.26-.5.4-.77s.29-.52.41-.76a1.68,1.68,0,0,1,.41-.45,1.16,1.16,0,0,1,.95-.18,12.22,12.22,0,0,0,3.92-.27,16.5,16.5,0,0,0,2.92-.9q1.26-.63,1.89-.18a9.13,9.13,0,0,1,2,1.58L306.67,28a.74.74,0,0,1,.18.54.72.72,0,0,1-.09.45,17.21,17.21,0,0,0-1.17,1.67q-.72,1.13-1.53,2.52t-1.62,3.06a27,27,0,0,0-1.35,3.29,11,11,0,0,0,1.21-1.08L304.78,36q1.44-1.39,3.11-3.15t3.1-3.47l2.25.09-4.32,5.76q-1.8,2.43-4,5.26t-4.1,5.18h-.09v.09h-.09l-.09.09c-.06.06-.11.09-.13.09s-.08,0-.14.09h-.09c-.42.24-.72.27-.9.09q-.72-.18-1.58-.45A11.81,11.81,0,0,1,296,45c-.06,0-.09,0-.09,0s0,0-.09,0a2.52,2.52,0,0,1-1.26-1.62,1.59,1.59,0,0,1-.18-.72v-.63a42.17,42.17,0,0,1,.72-5,18.08,18.08,0,0,1,2.88-6.21Z" transform="translate(-2.48 -3.14)"/><path class="cls-1" d="M64.66,115.87q1.8-1.62,3.51-3.24,1.53-1.44,3.24-3.2a36.74,36.74,0,0,0,3.06-3.55l2.25.09q-2.07,2.79-4.23,5.67-1.8,2.43-4,5.26t-4.18,5.18a1.51,1.51,0,0,1-.9.49,1.24,1.24,0,0,1-.63,0,1.52,1.52,0,0,1-.45-.18,3.35,3.35,0,0,1-.81.95,4.79,4.79,0,0,0-1.17,1.94h.45a10.9,10.9,0,0,1,1.71.18,10.53,10.53,0,0,1,2.11.58,6.13,6.13,0,0,1,1.85,1.13,2.51,2.51,0,0,1,.81,2,3.6,3.6,0,0,1-.18,1.21,8.42,8.42,0,0,1-.36.86,4.63,4.63,0,0,1-.54.63L66,132a2.44,2.44,0,0,1-.63.45.72.72,0,0,1-.27.09,4.8,4.8,0,0,0-2.25-1.57,15.79,15.79,0,0,0-3.51-.86,3.36,3.36,0,0,1-.54,0,3.15,3.15,0,0,0-.54,0c-.12.24-.26.48-.41.72a8,8,0,0,0-.4.72c-.3.48-.67,1-1.12,1.71a14.18,14.18,0,0,1-1.67,2A19.94,19.94,0,0,1,52.47,137a10.44,10.44,0,0,1-2.75,1.44,11.39,11.39,0,0,1-4.23.63A5.7,5.7,0,0,1,40.95,137a5.46,5.46,0,0,1-1.21-4.37,7.75,7.75,0,0,1,2.79-4.54q2.43-2.16,7.29-2.7a8,8,0,0,0,1.08-.09,7.37,7.37,0,0,1,1.21-.09c.45,0,1,0,1.58-.09H54a60,60,0,0,1,2.11-5.67,22,22,0,0,0,1-2.52q-.72,1.17-1.8,2.75a32.78,32.78,0,0,1-2.16,2.83,2.34,2.34,0,0,1-1.39.54,1.81,1.81,0,0,1-.95-.18l-4.5-1.62a1.24,1.24,0,0,1-.85-.95,6,6,0,0,1-.14-.85,35.45,35.45,0,0,1,.58-4.05,19.56,19.56,0,0,1,1.89-5.31A20.26,20.26,0,0,1,51.75,105a15.07,15.07,0,0,1,6.61-3.6c.12-.12.51-.15,1.17-.09l6,.9a1,1,0,0,0,.27.18.29.29,0,0,1,.18.27c0,.18-.15.33-.45.45q-1.26.54-3.15,1.53a18.69,18.69,0,0,0-3.83,2.75,21.93,21.93,0,0,0-3.65,4.41,20.64,20.64,0,0,0-2.61,6.34v.09c0,.18.09.21.27.09l.9-.81q.81-.72,2-2t2.57-3a33.18,33.18,0,0,0,2.65-3.91l.45-.45a1.07,1.07,0,0,1,1.08-.18l5.22,1.17q-.81,1.26-1.44,2.43a13.54,13.54,0,0,0-.95,2.21A6.84,6.84,0,0,0,64.66,115.87ZM49.45,134.14a14.27,14.27,0,0,0,1.49-2q.68-1.08,1.3-2.34a1.68,1.68,0,0,0-.54-.09h-.45c-.48,0-.95,0-1.4,0s-.82,0-1.12,0a.08.08,0,0,0-.09.09,13.58,13.58,0,0,0-3.55.86,3.63,3.63,0,0,0-2.29,2.29A3,3,0,0,0,42.7,135a2.11,2.11,0,0,0,1,1.21,2.88,2.88,0,0,0,1.71.32,5.81,5.81,0,0,0,2.07-.63l.36-.18a1.42,1.42,0,0,0,.36-.27A6.29,6.29,0,0,0,49.45,134.14Z" transform="translate(-2.48 -3.14)"/><path class="cls-1" d="M80.23,106.06a5.49,5.49,0,0,1,.58-.81c.21-.24.4-.48.58-.72a6.83,6.83,0,0,0,.63-.72,7.84,7.84,0,0,1-2.29,1.13,17.21,17.21,0,0,1-2.48.58q-1.89,2.61-4,5.22t-3.78,4.68q-1.35,1.8-2.16,2.7a13.31,13.31,0,0,0-.81,1.08L65.92,117q1.08-1.44,2.25-3.28t2.25-3.6q1.08-1.75,1.89-3.24t1.26-2.2c.12-.24.26-.5.4-.77s.29-.53.41-.77a1.69,1.69,0,0,1,.41-.45,1.16,1.16,0,0,1,.95-.18,12.22,12.22,0,0,0,3.92-.27,16.43,16.43,0,0,0,2.92-.9q1.26-.63,1.89-.18a9.16,9.16,0,0,1,2,1.58l1.67,1.66a.74.74,0,0,1,.18.54.72.72,0,0,1-.09.45,17.25,17.25,0,0,0-1.17,1.67q-.72,1.13-1.53,2.52t-1.62,3.06A27,27,0,0,0,82.57,116a11,11,0,0,0,1.21-1.08l2.47-2.39q1.44-1.39,3.11-3.15t3.1-3.46l2.25.09-4.32,5.76q-1.8,2.43-4,5.26t-4.1,5.18h-.09v.09h-.09l-.09.09c-.06.06-.11.09-.13.09s-.08,0-.14.09h-.09c-.42.24-.72.27-.9.09q-.72-.18-1.58-.45a11.81,11.81,0,0,1-1.75-.72c-.06,0-.09,0-.09,0s0,0-.09,0A2.52,2.52,0,0,1,76,119.74a1.59,1.59,0,0,1-.18-.72v-.63a42.17,42.17,0,0,1,.72-5,18.08,18.08,0,0,1,2.88-6.21Z" transform="translate(-2.48 -3.14)"/><path class="cls-1" d="M94.45,120a3.34,3.34,0,0,0,2.21-.22A10.38,10.38,0,0,0,99,118.3a21.39,21.39,0,0,0,2.39-2.29q1.17-1.3,2.25-2.66a73.36,73.36,0,0,0,5-7.47l2.25.09c-.24.54-.54,1.14-.9,1.8q-.9,1.62-2.88,4.77c-.3.48-.6.93-.9,1.35s-.6.87-.9,1.35a3,3,0,0,1-.18.31l-.27.41a2.59,2.59,0,0,1-.45.54,1,1,0,0,0-.18.27,1.24,1.24,0,0,1-.23.32l-.22.22a22.2,22.2,0,0,1-2.12,2.47A11.87,11.87,0,0,1,98,122.44l-.9.45a.37.37,0,0,0-.27.09.51.51,0,0,0-.36.09q-.45.09-.9.13c-.3,0-.6,0-.9,0s-.63,0-1,0a9.43,9.43,0,0,1-1-.13,6.16,6.16,0,0,1-4.09-2.61,7.45,7.45,0,0,1-1-4.19,14.46,14.46,0,0,1,1-4.63,17.27,17.27,0,0,1,2.16-4.05A29.66,29.66,0,0,1,93.46,104a16.86,16.86,0,0,1,2.61-2.21,6.77,6.77,0,0,1,1.26-.72,4,4,0,0,1,1.26-.18,2.38,2.38,0,0,1,1.53.72q.72.72,1.4,1.35c.45.42.82.78,1.13,1.08l1,1a1.16,1.16,0,0,1,.27.54,2.65,2.65,0,0,1,0,.86,3.61,3.61,0,0,1-.5,1.3,16.72,16.72,0,0,1-2.16,3.51,2.81,2.81,0,0,1-.54.72,15.87,15.87,0,0,1-2.07,1.89,10.41,10.41,0,0,1-3.46,1.8,19.83,19.83,0,0,1-2.39.54q-.72,1.8.09,2.7A2,2,0,0,0,94.45,120Zm-.72-5.58a1.94,1.94,0,0,1-.36.63A9.9,9.9,0,0,0,97,112.5,21.28,21.28,0,0,0,99,110.11a11.62,11.62,0,0,0,1-1.57,3.3,3.3,0,0,0,.45-1.48q-1.35,1.26-2.52,2.52l-2.16,2.34A18.13,18.13,0,0,0,93.73,114.43Z" transform="translate(-2.48 -3.14)"/><path class="cls-1" d="M122.17,116.41q1.53-1.71,3.15-3.42,1.26-1.53,2.75-3.37a32.22,32.22,0,0,0,2.56-3.64h2.25q-1.53,3-3.15,5.94-1.44,2.52-3.24,5.4a53.1,53.1,0,0,1-3.69,5.22,1.53,1.53,0,0,1-.9.5l-.63,0q-.81-.27-2.52-.72a12.16,12.16,0,0,1-2.7-1,.77.77,0,0,1-.36-.63c-.06-.48-.11-1.18-.13-2.12a17.86,17.86,0,0,1,.13-2.84q-.72,1.35-1.53,2.61-.72,1.08-1.62,2.34a24.81,24.81,0,0,1-1.8,2.25,1.74,1.74,0,0,1-1.35.58,4.71,4.71,0,0,1-1-.13L104,121.81a1.27,1.27,0,0,1-.95-1c-.09-.48-.13-.75-.13-.81a35.43,35.43,0,0,1,.58-4,20.18,20.18,0,0,1,1.89-5.36,19.52,19.52,0,0,1,3.92-5.18,15.45,15.45,0,0,1,6.57-3.6,2,2,0,0,0,.41-.09,1.67,1.67,0,0,1,.76,0l6,1a.4.4,0,0,1,.45.45q0,.27-.45.45a23.13,23.13,0,0,0-3.15,1.48,19.06,19.06,0,0,0-3.78,2.79,23.49,23.49,0,0,0-3.6,4.37,21.72,21.72,0,0,0-2.7,6.3l.09.09c0,.18.06.21.18.09a4.74,4.74,0,0,0,.9-.72q.81-.72,2-2t2.61-3a33.17,33.17,0,0,0,2.66-3.92,2.2,2.2,0,0,1,.4-.49,1.05,1.05,0,0,1,1-.13l5.22,1.17q-.81,1.26-1.44,2.43a14.26,14.26,0,0,0-.95,2.16A6.66,6.66,0,0,0,122.17,116.41Z" transform="translate(-2.48 -3.14)"/><path class="cls-1" d="M146.65,86.71a4.63,4.63,0,0,1-.45.85q-.27.41-.54.86,3.51.09,6.79.13t6,0q2.75-.09,4.68-.31a7,7,0,0,0,2.66-.68l.09-.09c.18,0,.27,0,.27.09a9.58,9.58,0,0,1,.45,1.21,3.71,3.71,0,0,1-.09,2.12,2.5,2.5,0,0,1-1,1.58,4.24,4.24,0,0,1-1.76.63,16.43,16.43,0,0,1-2.2.13h-2.48l-2,0L153.54,93l-4.77-.18-5.54-.18-1.84,3.69q-1,2.07-2.07,4.32t-2,4.59q-.95,2.34-1.76,4.5-.36,1-.67,2.07t-.58,2.07q-.18.72-.36,1.39c-.12.45-.24.92-.36,1.39l1.21-1.26q1.13-1.17,2.75-2.79l3.42-3.42q1.8-1.8,3.15-3.33l2.25.09q-2.25,3.06-4.59,6-2,2.61-4.27,5.54t-4.19,5.27l-.27.27a.18.18,0,0,0-.13,0,.37.37,0,0,1-.23,0h-.36v-.09L129.1,122a1.94,1.94,0,0,1-1.17-1,6.66,6.66,0,0,1-.36-1.12,4.29,4.29,0,0,1,0-.59,4.57,4.57,0,0,0,0-.67,64.64,64.64,0,0,1,1.08-6.66q.72-3.33,1.58-6.12t1.62-4.9q.76-2.11,1.21-3.11.36-.81,1-2.52t1.13-2.7q-2.88,0-4.46.09a16.26,16.26,0,0,0-2.38.27,2.08,2.08,0,0,0-1.13.54l-.77.9c-.12.12-.22.17-.31.13s-.13-.07-.13-.13a5.08,5.08,0,0,1-.9-1.39,3.28,3.28,0,0,1-.09-2.29,3.48,3.48,0,0,1,.81-1.53A4.74,4.74,0,0,1,127.53,88a6.68,6.68,0,0,1,2.83-.5,5.32,5.32,0,0,1,.86,0l.76.13q.54.09,1.75.23t3.83.22q.63-1.26,1.3-2.52t1.4-2.52l.4-.4a1.3,1.3,0,0,1,.68-.31,1.8,1.8,0,0,1,1.26.27l3.51,1.62a1.77,1.77,0,0,1,.81.81A1.56,1.56,0,0,1,146.65,86.71Z" transform="translate(-2.48 -3.14)"/><path class="cls-1" d="M170.32,102.73a5.67,5.67,0,0,0-.36.63c-.12.18-.26.41-.41.68s-.31.58-.5.95a24.66,24.66,0,0,1,2.3-2,4.39,4.39,0,0,1,2.11-1,2.79,2.79,0,0,1,1.35.49,17.08,17.08,0,0,1,1.71,1.22,22.39,22.39,0,0,1,1.8,1.62l1.62,1.62.36.54a11.94,11.94,0,0,1,.41,1.3,3.64,3.64,0,0,1-.22,2.12,17.85,17.85,0,0,1-2,4.23,20.32,20.32,0,0,1-3.24,4,19.26,19.26,0,0,1-4.14,3,9.71,9.71,0,0,1-4.68,1.21,1.07,1.07,0,0,1-.67-.18q-.23-.18-.23-.27L163.84,119a12.43,12.43,0,0,0,4.32-2.25,17.55,17.55,0,0,0,3.6-3.87,21.48,21.48,0,0,0,3-6.84c-.24-.36-.69-.48-1.35-.36a8.7,8.7,0,0,0-2.47,1.13,33.85,33.85,0,0,0-4.28,3.29q-1.35,2.88-2.79,6.53t-2.56,7.56q-1.12,3.91-1.85,7.88a32.55,32.55,0,0,0-.54,7.47c0,.3-.12.45-.36.45l-3.42-.9a1.86,1.86,0,0,1-1.21-.9,4.49,4.49,0,0,1-.41-1.08,45.79,45.79,0,0,1,.09-4.72,54.13,54.13,0,0,1,1.17-7.87,107,107,0,0,1,3-10.75,109.19,109.19,0,0,1,5.49-13.37,2.43,2.43,0,0,1,.32-.45,1.13,1.13,0,0,1,.67-.36,3,3,0,0,1,1.26.09Z" transform="translate(-2.48 -3.14)"/><path class="cls-1" d="M187.87,120a3.34,3.34,0,0,0,2.21-.22,10.38,10.38,0,0,0,2.34-1.48A21.39,21.39,0,0,0,194.8,116q1.17-1.3,2.25-2.66a73.36,73.36,0,0,0,5-7.47l2.25.09c-.24.54-.54,1.14-.9,1.8q-.9,1.62-2.88,4.77c-.3.48-.6.93-.9,1.35s-.6.87-.9,1.35a3,3,0,0,1-.18.31l-.27.41a2.59,2.59,0,0,1-.45.54,1,1,0,0,0-.18.27,1.24,1.24,0,0,1-.23.32l-.22.22a22.2,22.2,0,0,1-2.12,2.47,11.87,11.87,0,0,1-3.74,2.65l-.9.45a.37.37,0,0,0-.27.09.51.51,0,0,0-.36.09q-.45.09-.9.13c-.3,0-.6,0-.9,0s-.63,0-1,0a9.43,9.43,0,0,1-1-.13,6.16,6.16,0,0,1-4.09-2.61,7.45,7.45,0,0,1-1-4.19,14.46,14.46,0,0,1,1-4.63,17.27,17.27,0,0,1,2.16-4.05,29.66,29.66,0,0,1,2.79-3.55,16.86,16.86,0,0,1,2.61-2.21,6.77,6.77,0,0,1,1.26-.72,4,4,0,0,1,1.26-.18,2.38,2.38,0,0,1,1.53.72q.72.72,1.4,1.35c.45.42.82.78,1.13,1.08l1,1a1.16,1.16,0,0,1,.27.54,2.65,2.65,0,0,1,0,.86,3.61,3.61,0,0,1-.5,1.3,16.72,16.72,0,0,1-2.16,3.51,2.81,2.81,0,0,1-.54.72,15.87,15.87,0,0,1-2.07,1.89,10.41,10.41,0,0,1-3.46,1.8,19.83,19.83,0,0,1-2.39.54q-.72,1.8.09,2.7A2,2,0,0,0,187.87,120Zm-.72-5.58a1.94,1.94,0,0,1-.36.63,9.9,9.9,0,0,0,3.65-2.57,21.28,21.28,0,0,0,1.93-2.38,11.62,11.62,0,0,0,1-1.57,3.3,3.3,0,0,0,.45-1.48q-1.35,1.26-2.52,2.52l-2.16,2.34A18.13,18.13,0,0,0,187.15,114.43Z" transform="translate(-2.48 -3.14)"/><path class="cls-1" d="M224.77,106.69a12.52,12.52,0,0,1-4,1.13,13.42,13.42,0,0,1-3.33-.13,10.8,10.8,0,0,1,0,3.42c-.06.18-.17.54-.32,1.08a15.39,15.39,0,0,1-.76,2,14.11,14.11,0,0,1-1.53,2.56,17.37,17.37,0,0,1-2.52,2.7q-.36.27-.67.54a6.5,6.5,0,0,1-.58.45l-.81.54a10.72,10.72,0,0,1-2.57,1.17c-.69.18-1.19.3-1.48.36H206a4.88,4.88,0,0,0-.67,0,1.71,1.71,0,0,1-.67,0,5.25,5.25,0,0,1-4-1.62,5.45,5.45,0,0,1-1.8-4.05,16.18,16.18,0,0,1,.63-5l.36-1.08q.18-.54.36-1a19.2,19.2,0,0,1,3.11-5.67q1.75-2.07,2.38-2.79a9.42,9.42,0,0,1,1.44-.9,5,5,0,0,1,1.35-.36,2.17,2.17,0,0,1,1.44.36l1.08.76c.3.21.6.44.9.68l.36.27h.09a2.07,2.07,0,0,1,.9,1.62,3.86,3.86,0,0,1-.18,1.35c-.06.12-.12.18-.18.18h-.09a2.24,2.24,0,0,0-1,.27,26.72,26.72,0,0,0-2.25,1.62,16.52,16.52,0,0,0-4,5.31q-.27.54-.58,1.26a8.15,8.15,0,0,0-.5,1.53l-.18,1.08a2.72,2.72,0,0,0,0,1c0,1,.33,1.56,1,1.8a2.82,2.82,0,0,0,.81.18,1.54,1.54,0,0,0,.63-.09h.27a8.57,8.57,0,0,0,2-.9,9.52,9.52,0,0,0,3.55-3.74q.31-.58.58-1a6.52,6.52,0,0,0,.58-2.21,5.26,5.26,0,0,0,0-1.3v-.18a6.57,6.57,0,0,0-1.35-3c-.12-.12-.18-.21-.18-.27a.26.26,0,0,0-.09-.18.3.3,0,0,1,.14-.27,1.39,1.39,0,0,0,.22-.18c0-.06.06-.15.18-.27l1.53-1.17.18-.09h.09a33.52,33.52,0,0,0,5.27.77,28.84,28.84,0,0,0,4.81-.13.74.74,0,0,1,.32,1C224.69,106.5,224.65,106.69,224.77,106.69Z" transform="translate(-2.48 -3.14)"/><path class="cls-1" d="M231.25,102.73a5.67,5.67,0,0,0-.36.63c-.12.18-.26.41-.41.68s-.31.58-.5.95a24.66,24.66,0,0,1,2.3-2,4.39,4.39,0,0,1,2.11-1,2.79,2.79,0,0,1,1.35.49,17.08,17.08,0,0,1,1.71,1.22,22.39,22.39,0,0,1,1.8,1.62l1.62,1.62.36.54a11.94,11.94,0,0,1,.41,1.3,3.64,3.64,0,0,1-.22,2.12,17.85,17.85,0,0,1-2,4.23,20.32,20.32,0,0,1-3.24,4,19.26,19.26,0,0,1-4.14,3,9.71,9.71,0,0,1-4.68,1.21,1.07,1.07,0,0,1-.67-.18q-.23-.18-.23-.27L224.77,119a12.43,12.43,0,0,0,4.32-2.25,17.55,17.55,0,0,0,3.6-3.87,21.48,21.48,0,0,0,3-6.84c-.24-.36-.69-.48-1.35-.36a8.7,8.7,0,0,0-2.47,1.13,33.85,33.85,0,0,0-4.28,3.29q-1.35,2.88-2.79,6.53t-2.56,7.56q-1.12,3.91-1.85,7.88a32.55,32.55,0,0,0-.54,7.47c0,.3-.12.45-.36.45l-3.42-.9a1.86,1.86,0,0,1-1.21-.9,4.49,4.49,0,0,1-.41-1.08,45.79,45.79,0,0,1,.09-4.72,54.13,54.13,0,0,1,1.17-7.87,107,107,0,0,1,3-10.75,109.19,109.19,0,0,1,5.49-13.37,2.43,2.43,0,0,1,.32-.45,1.13,1.13,0,0,1,.67-.36,3,3,0,0,1,1.26.09Z" transform="translate(-2.48 -3.14)"/><path class="cls-1" d="M259.33,85.81a8,8,0,0,1,.81.95,5.12,5.12,0,0,1,.63,1.21,9.7,9.7,0,0,1,.68,3.1,16.39,16.39,0,0,1-.5,4.64,13.71,13.71,0,0,1-1.84,4.36,30.14,30.14,0,0,1-6,6.79q-1.62,1.35-2.7,2.16c-.06.12-.12.26-.18.41s-.12.31-.18.49q-.36,1-.67,2c-.21.69-.4,1.39-.58,2.12q-.18.72-.36,1.35c-.12.42-.24.87-.36,1.35l1.3-1.3,2.83-2.83,3.38-3.37q1.75-1.75,2.92-3l2.25.09q-2.25,3-4.59,5.94-2,2.61-4.23,5.49T247.72,123l-.18.18a.53.53,0,0,1-.36.09c-.12.06-.19.07-.22,0a.18.18,0,0,0-.13,0h-.09l-3.15-1.08a2.31,2.31,0,0,1-1.17-1.08A5.65,5.65,0,0,1,242,120c0-.6,0-1.32.09-2.16s.18-1.83.36-3q.36-2.34.9-4.46t1.08-3.92q.63-2,1.26-3.87.54-1.53,1.17-3.06t1.35-3.24A75.83,75.83,0,0,1,252,88.51q1.53-2.61,1.8-3v-.09l.09-.18a10.68,10.68,0,0,1,1.35-1.08,1.91,1.91,0,0,1,2.16.09,1.16,1.16,0,0,1,.22.13,1,1,0,0,0,.22.14q.36.27.72.58C258.85,85.35,259.09,85.57,259.33,85.81Zm-2.16,13a11.88,11.88,0,0,0,.86-3.24,7.52,7.52,0,0,0-.14-2.52q-1.44,2.61-3.06,5.85t-3.15,6.84a32.35,32.35,0,0,0,3-3.06A14.88,14.88,0,0,0,257.17,98.77Z" transform="translate(-2.48 -3.14)"/><path class="cls-1" d="M260.95,120a3.34,3.34,0,0,0,2.21-.22,10.38,10.38,0,0,0,2.34-1.48,21.39,21.39,0,0,0,2.39-2.29q1.17-1.3,2.25-2.66a73.36,73.36,0,0,0,5-7.47l2.25.09c-.24.54-.54,1.14-.9,1.8q-.9,1.62-2.88,4.77c-.3.48-.6.93-.9,1.35s-.6.87-.9,1.35a3,3,0,0,1-.18.31l-.27.41a2.59,2.59,0,0,1-.45.54,1,1,0,0,0-.18.27,1.24,1.24,0,0,1-.23.32l-.22.22a22.2,22.2,0,0,1-2.12,2.47,11.87,11.87,0,0,1-3.74,2.65l-.9.45a.37.37,0,0,0-.27.09.51.51,0,0,0-.36.09q-.45.09-.9.13c-.3,0-.6,0-.9,0s-.63,0-1,0a9.43,9.43,0,0,1-1-.13,6.16,6.16,0,0,1-4.09-2.61,7.45,7.45,0,0,1-1-4.19,14.46,14.46,0,0,1,1-4.63,17.27,17.27,0,0,1,2.16-4.05A29.66,29.66,0,0,1,260,104a16.86,16.86,0,0,1,2.61-2.21,6.77,6.77,0,0,1,1.26-.72,4,4,0,0,1,1.26-.18,2.38,2.38,0,0,1,1.53.72q.72.72,1.4,1.35c.45.42.82.78,1.13,1.08l1,1a1.16,1.16,0,0,1,.27.54,2.65,2.65,0,0,1,0,.86,3.61,3.61,0,0,1-.5,1.3,16.72,16.72,0,0,1-2.16,3.51,2.81,2.81,0,0,1-.54.72,15.87,15.87,0,0,1-2.07,1.89,10.41,10.41,0,0,1-3.46,1.8,19.83,19.83,0,0,1-2.39.54q-.72,1.8.09,2.7A2,2,0,0,0,260.95,120Zm-.72-5.58a1.94,1.94,0,0,1-.36.63,9.9,9.9,0,0,0,3.65-2.57,21.28,21.28,0,0,0,1.93-2.38,11.62,11.62,0,0,0,1-1.57,3.3,3.3,0,0,0,.45-1.48q-1.35,1.26-2.52,2.52l-2.16,2.34A18.13,18.13,0,0,0,260.23,114.43Z" transform="translate(-2.48 -3.14)"/></svg>