<?xml version="1.0" encoding="utf-8"?>
<!-- Generator: Adobe Illustrator 21.1.0, SVG Export Plug-In . SVG Version: 6.00 Build 0)  -->
<svg version="1.1" id="Laag_1" xmlns="http://www.w3.org/2000/svg" xmlns:xlink="http://www.w3.org/1999/xlink" x="0px" y="0px"
	 viewBox="0 0 472.6 223.5" style="enable-background:new 0 0 472.6 223.5;" xml:space="preserve">
<style type="text/css">
	.st0{fill:#1D1D1B;}
	.st1{fill:#BDD4DE;}
</style>
<g>
	<g>
		<path class="st0" d="M149.8,2.5h35.1v8h-12.8v34h-9.5v-34h-12.8V2.5z"/>
		<path class="st0" d="M190,2.5h9.5V20h19V2.5h9.5v42h-9.5V28h-19v16.6H190V2.5z"/>
		<path class="st0" d="M268.3,44.5l-3.3-8.2h-19.4l-3.3,8.2h-9.8l18.2-42h9.8l17.9,42H268.3z M248.7,28.7h13.3l-6.6-16.3L248.7,28.7
			z"/>
		<path class="st0" d="M274.3,2.5h35.1v8h-12.8v34h-9.5v-34h-12.8V2.5z"/>
		<path class="st0" d="M320.1,1.3c0.9,0.8,1.3,2,1.3,3.4c0,0.6-0.1,1.2-0.3,1.8c-0.2,0.5-0.5,1.2-0.9,2L316,16h-4.5l2.8-7.6
			c-1.3-0.8-2-2.1-2-3.8c0-1.4,0.4-2.5,1.3-3.4c0.9-0.9,2-1.3,3.3-1.3C318.2,0,319.3,0.4,320.1,1.3z"/>
		<path class="st0" d="M349.2,11.1c-2.4-0.8-4.5-1.2-6.2-1.2c-1.6,0-2.9,0.3-3.9,0.9c-1,0.6-1.4,1.5-1.4,2.6c0,1.5,0.7,2.6,2.1,3.4
			c1.4,0.8,3.5,1.6,6.4,2.4s5.3,1.7,7.1,2.5s3.5,2.1,4.8,3.8c1.3,1.7,2,3.9,2,6.7c0,2.7-0.7,5-2.1,6.9c-1.4,1.9-3.4,3.4-5.9,4.4
			c-2.5,1-5.3,1.5-8.5,1.5c-3.4,0-6.7-0.6-10-1.8c-3.3-1.2-6.1-2.8-8.5-4.9l3.8-7.7c2.1,1.9,4.6,3.5,7.3,4.6
			c2.8,1.2,5.3,1.7,7.6,1.7c2,0,3.5-0.4,4.6-1.1s1.7-1.8,1.7-3.1c0-1.1-0.4-2-1.1-2.7c-0.7-0.7-1.7-1.3-2.8-1.7
			c-1.1-0.4-2.7-0.9-4.7-1.5c-2.9-0.8-5.2-1.6-7.1-2.4c-1.8-0.8-3.4-2-4.7-3.7c-1.3-1.6-2-3.8-2-6.5c0-2.5,0.7-4.7,2-6.6
			c1.4-1.9,3.3-3.4,5.7-4.4c2.4-1,5.3-1.5,8.5-1.5c2.9,0,5.7,0.4,8.5,1.3c2.8,0.8,5.3,2,7.4,3.4l-3.7,7.9
			C353.9,12.9,351.6,11.9,349.2,11.1z"/>
		<path class="st0" d="M380.7,2.5h10.6l13.1,25.8l13-25.8h10.5v42h-8.5V16.1l-11.9,24.1h-6.1l-12-24.1v28.4h-8.5V2.5z"/>
		<path class="st0" d="M472.6,2.5L457.3,31v13.6h-9.5V31.2L432.3,2.5h9.5l10.7,18.8l10.5-18.8H472.6z"/>
	</g>
	<g>
		<path class="st1" d="M154.2,50.2c1.1,0,2.5,0.2,4.3,0.6c1.8,0.4,3.5,1.2,5.2,2.3c1.7,1.1,3.1,2.7,4.3,5c1.2,2.3,1.6,5.1,1.2,8.5
			c-0.4,1.7-0.8,3.1-1.2,4.2c-0.4,1.1-0.8,1.9-1.2,2.6c-0.4,0.2-0.6,0.3-0.7,0.2c-0.1-0.1-0.2-0.2-0.4-0.2V73
			c-1.3-1.5-3.2-2.4-5.8-2.6c-2.6-0.2-4.5-0.3-5.8-0.3c-1.8,0-3.3,0.1-4.4,0.2c-1.2,0.1-3.3,0.3-6.3,0.5c-2.1,0.2-4.5,0.4-7.1,0.5
			c-2.6,0.1-5.2,0.2-7.9,0.2c-1.4,5.6-3.2,12.1-5.4,19.7c-2.1,7.5-4.6,15.5-7.2,24c-2.7,8.5-5.5,17-8.6,25.6
			c-3,8.6-6.2,16.8-9.4,24.5c0,0.4-0.4,1.3-1.1,2.6c-0.9,1.7-1.8,3.7-2.8,5.8c-1,2.1-2.2,4.4-3.6,6.8c-5.7,8.8-11.7,15.5-17.9,20
			c-7.5,5.6-14.9,8.5-22.2,8.7c-7.3,0.2-14.1-0.6-20.4-2.6c-4.8-1.3-9.3-3.9-13.5-7.9c-4.2-4-7.6-8.9-10.3-14.7
			c-2.7-5.8-4.5-12.5-5.5-20c-1-7.5-0.7-15.6,0.9-24.2c1.2-6.2,2.9-11.9,4.8-17.1c2.3-5.2,4.6-9,6.7-11.6
			c3.9-5.6,8.1-10.1,12.6-13.5c4.5-3.4,8.1-5.6,11-6.4c2.7-0.2,5.4,0,8,0.6c2.3,0.6,4.9,1.7,7.6,3.2c2.8,1.5,5.4,3.8,7.9,6.8
			c0.2,0.4,0.4,1,0.7,1.8c0.3,0.8-0.1,1.4-1.2,2.1c-1.8,0.6-4.2,1.8-7.2,3.4c-3,1.6-6.3,3.6-9.9,6l-0.3,0.3
			c-0.9,0.6-2.9,2.1-5.9,4.5c-3,2.4-6.2,6-9.4,11c-0.4,0.2-0.9,1-1.6,2.3c-0.5,0.9-1.1,1.9-1.6,3.1c-0.5,1.2-1.2,2.5-1.9,4
			c-0.7,1.7-1.4,3.5-2,5.3c-0.6,1.8-1.1,3.9-1.5,6.3c-1.1,7.3-0.5,14.2,1.6,20.8c2.1,6.6,6.3,10.9,12.6,13c0.4,0,0.6,0.1,0.8,0.2
			c0.2,0.1,0.4,0.2,0.8,0.2c5.4,1.7,10.2,2.1,14.6,1.1c4.4-1,8.3-2.6,11.7-5c3.4-2.4,6.3-5.2,8.8-8.4c2.5-3.2,4.6-6.2,6.2-9
			c0-0.2,0.1-0.3,0.3-0.3v-0.6H76c2-3.6,3.8-7.6,5.6-11.8c1.8-4.2,3.1-7.5,4-9.8c3.6-9,7.3-19.3,11.1-30.9
			c3.8-11.6,7.7-24.6,11.7-39c-8.2,0.2-16.3,0.1-24.1-0.5c-7.9-0.5-14.6-1.3-20.4-2.4c-4.1-0.6-7.3-1.8-9.5-3.5
			c-2.2-1.7-3.9-3.5-5-5.5c-1.3-2.1-2.1-4.5-2.4-7.1c-0.9-4.5-0.7-8.3,0.7-11.3c1.3-3,2.5-5.3,3.6-6.8c0.9-0.4,1.6-0.3,2.1,0.3
			c1.4,2.6,5.5,4.7,12.2,6.4c6.7,1.7,14.8,3.1,24.2,4.2c9.5,1.1,19.9,2,31.2,2.7C132.4,49.5,143.5,49.9,154.2,50.2z"/>
		<path class="st1" d="M259.7,58.5c-12.5,27.1-22,50.8-28.4,71.2c-6.4,20.4-11.1,37.6-13.9,51.5c-3.2,16.3-5,30.4-5.4,42.2
			c-2.5-0.4-4.6-1-6.3-1.8c-1.7-0.8-3.2-1.6-4.4-2.4c-1.4-0.9-2.6-1.9-3.5-3.2c-2-3.4-2.9-8.9-2.9-16.4c0-10.5-1.1-21.4-3.3-32.5
			c-2.2-11.2-5.6-21.7-10-31.6c-1.6,3-3.1,6-4.4,9c-1.3,3-2.5,6.1-3.6,9.3c-2.5,6.4-4.2,12.8-5,19.2c-0.8,6.3-1.3,12.3-1.5,17.9
			c-2.3-0.4-4.7-1-7.1-1.6c-2.4-0.6-4.4-2-6-4.2c-1.3-1.5-2.1-3.3-2.7-5.5c-4.1-19.1-5.9-34.7-5.2-46.7c0.6-12,1.6-20.7,3.1-26.1
			c0.5-2.1,1.1-3.8,1.6-4.8c0.4-0.4,0.6-0.9,0.8-1.4c0.2-0.5,0.4-1,0.8-1.4c0.9-1.7,1.7-2.9,2.4-3.7c0.7-0.8,1.2-1.3,1.3-1.8
			c1.8-1.7,3.8-3.1,6-4c2.2-1,4.5-0.6,6.8,1.1c2,1.5,3.8,3.1,5.6,4.8c1.8,1.7,3.5,3.4,5.1,5.2c0.4-0.6,1.1-1.6,2.1-2.9
			c4.6-6.7,10.4-13.4,17.1-20.3c6.8-6.9,13.8-13.4,21.2-19.7c-5.2,0.2-10.2,0.5-15,0.8c-4.8,0.3-9.2,0.9-13,1.6
			c-3.8,0.8-6.9,1.7-9.1,2.9c-2.2,1.2-3.3,2.6-3.3,4.3c-1.3-1.3-2.2-2.8-2.9-4.5c-0.7-1.5-1.3-3.3-1.6-5.3c-0.4-2-0.4-4.6,0-7.6
			c0.4-2.4,1.1-4.6,2.1-6.8c0.9-1.7,2.3-3.3,4.3-4.7c2-1.4,4.7-2.2,8.3-2.4c2,0,5,0,9,0s8.6,0.1,13.7,0.2c5.1,0.1,10.5,0.2,16.3,0.2
			c5.8,0,11.5,0,17,0h1.6c0.2,0.2,0.5,0.3,1.1,0.3c1.1,0.4,2.1,0.9,2.9,1.3c1.1,0.6,2.4,1.5,3.9,2.6c1.5,1.1,3,2.5,4.4,4.2
			c1.1,1.3,1.7,2.7,1.9,4.3c0.2,1.6,0.1,3.1-0.3,4.3C261,55.4,260.4,57,259.7,58.5z M155.5,149.4c2.3-6.4,4.6-12.3,7-17.7
			c2.3-5.4,4.8-10.5,7.5-15.5c-2.9-3.9-5.8-7-8.8-9.3c-2.1,3.4-3.8,7.2-4.8,11.4c-1.1,4.2-1.8,8.4-2.1,12.7
			c-0.4,4.3-0.4,8.3-0.3,12.1c0.2,3.8,0.4,6.9,0.8,9.5C154.9,151.7,155.2,150.7,155.5,149.4z M192.5,117.5c5.5,9.5,10,19.1,13.4,29
			c3.8-12.9,8-25.6,12.7-38.2c4.7-12.6,9.2-24.1,13.5-34.6c-7,6.2-13.9,13-20.8,20.5C204.5,101.5,198.2,109.3,192.5,117.5z"/>
		<path class="st1" d="M339,104.6c6.8-10.1,13.3-19,19.7-26.6c6.3-7.6,12.1-14.1,17.4-19.5c5.3-5.4,9.9-9.7,13.8-12.9
			c3.9-3.2,6.9-5.5,8.8-6.8c0.4-0.4,1.2-0.6,2.4-0.6c0.9,0,1.7,0.2,2.4,0.6c3.2,2.4,5.9,5.4,8,9c1.4,2.1,1.9,4.6,1.3,7.2
			c-0.5,2.7-1.5,5.1-2.9,7.2c-4.1,6.9-7.9,13.7-11.5,20.6c-3.6,6.9-6.9,13.9-9.9,20.9c-0.4,1.1-0.8,2.3-1.3,3.5s-1.1,2.8-1.6,4.5
			c7-11,13.9-20.7,20.9-29.3c7-8.6,13.4-15.9,19.4-21.9c6-6,11.2-10.8,15.7-14.5c4.5-3.6,7.7-6.1,9.6-7.4c0.7-0.4,1.4-0.6,2.1-0.6
			c1.1,0,2,0.2,2.7,0.6c1.4,1.1,2.8,2.4,4.2,4c1.3,1.6,2.6,3.3,3.9,5c1.4,2.1,1.9,4.6,1.3,7.2c-0.5,2.7-1.5,5.1-2.9,7.2
			c-9.6,16.1-17.6,32-24,47.7c-6.3,15.7-10.7,33.4-13,53.2c-0.9,5.8-1.6,11.8-2,18c-0.4,6.2-0.2,12.3,0.7,18.4
			c-2.5,0.2-5,0.3-7.6,0.2c-2.6-0.1-4.9-1-6.8-2.7c-2-1.5-3.4-3.8-4.3-6.8c-0.9-3-1.4-6.2-1.6-9.5c-0.2-3.3-0.1-6.7,0.1-10
			c0.3-3.3,0.6-6.2,0.9-8.5c0.5-5.2,1.2-9.8,1.9-14c0.7-4.2,1.6-8.2,2.5-12.1c1-3.9,2.1-7.8,3.5-11.8c1.3-4,2.9-8.3,4.7-13
			c5.7-17,12.6-32.9,20.6-47.7c-14.8,14.8-26.7,30.1-35.5,45.7c-8.8,15.7-15.6,30.1-20.2,43.2c-5.5,15.3-9.4,30.3-11.5,45.1
			c-0.7,1.5-1.5,2.3-2.4,2.3h-0.3c-2,0-3.9-0.2-5.8-0.5c-1.9-0.3-3.5-1.1-5-2.4c-2-1.5-3.4-3.8-4.3-6.8c-0.9-3-1.4-6.2-1.6-9.5
			c-0.2-3.3-0.2-6.7,0-10c0.2-3.3,0.4-6.2,0.8-8.5c0.5-5.2,1.2-9.8,1.9-14c0.7-4.2,1.6-8.2,2.5-12.1c1-3.9,2.1-7.8,3.5-11.8
			c1.3-4,2.9-8.3,4.7-13c5.7-17,12.6-32.9,20.6-47.7c-11.8,11.6-21.8,23.7-30.1,36.2c-8.3,12.6-15.3,24.5-20.9,35.9
			c-5.6,11.4-10,21.8-13.3,31.2c-3.2,9.5-5.5,16.9-7,22.2l-0.8,8.7h-1.1c-2.5-0.4-4.6-1-6.2-1.6c-1.6-0.6-2.9-1.3-3.8-1.9
			c-1.1-0.9-2-1.7-2.7-2.6c-3-3.7-3.8-10.4-2.4-20.1c1.4-9.8,4.1-20.8,7.9-33c3.8-12.2,8.3-24.9,13.5-37.9c5.2-13,10.1-24.6,14.7-35
			c-13.4,12.9-24.8,27.5-34.3,43.8c-3,5.4-5.8,10.9-8.3,16.6c-2.5,5.7-4.6,11.7-6.4,17.9c-0.9,3-1.7,6.1-2.4,9.3
			c-0.7,3.2-0.6,6.3,0.3,9.3c0.4,0.6,0.4,1.1,0.1,1.4c-0.3,0.3-0.5,0.5-0.7,0.5c-2.5,1.1-5,1.5-7.6,1.3c-2.6-0.2-5-1.2-7.1-2.9
			c-3.6-2.8-5.4-6.8-5.4-11.9s0.6-9.8,1.9-13.9c5.2-16.8,12.5-31.8,22-45.1c9.5-13.3,20.1-25.4,31.9-36.4c3.4-3.2,6.9-6.1,10.4-8.7
			c2-1.5,3.8-2.9,5.6-4.2c1.8-1.3,3.7-2.5,5.6-3.5c2.7-1.5,4.8-2.9,6.4-4.2c0.2-0.2,0.4-0.3,0.8-0.3c0.4,0,0.7-0.1,1.1-0.3
			c0.4,0,0.8,0,1.2,0c0.4,0,0.8,0.1,1.2,0.3c1.2,0.6,2.7,1.6,4.4,2.9c1.7,1.3,3.4,2.9,5.2,4.8c2.1,2.6,2.9,5.6,2.1,9
			c-0.4,1.7-1,3.4-1.9,5.2c-4.1,8.8-7.9,17.1-11.3,25C345.3,89.7,342,97.3,339,104.6z"/>
	</g>
</g>
</svg>
