<?xml version="1.0" encoding="utf-8"?>
<!-- Generator: Adobe Illustrator 21.1.0, SVG Export Plug-In . SVG Version: 6.00 Build 0)  -->
<svg version="1.1" id="Laag_1" xmlns="http://www.w3.org/2000/svg" xmlns:xlink="http://www.w3.org/1999/xlink" x="0px" y="0px"
	 viewBox="0 0 54.2 83.8" style="enable-background:new 0 0 54.2 83.8;" xml:space="preserve">
<style type="text/css">
	.st0{fill:#FF8C00;}
</style>
<g>
	<g>
		<path class="st0" d="M53,58.2c0,3.9-0.8,7.4-2.2,10.4c-1.5,3-3.6,5.6-6.3,7.6c-2.7,2.1-5.9,3.6-9.6,4.7c-3.7,1.1-7.8,1.6-12.2,1.6
			c-2.7,0-5.2-0.2-7.5-0.6c-2.3-0.4-4.4-0.9-6.2-1.4c-1.8-0.6-3.3-1.2-4.5-1.8c-1.2-0.6-1.9-1.1-2.3-1.4c-0.4-0.3-0.6-0.7-0.8-1.1
			c-0.2-0.4-0.3-0.9-0.5-1.4c-0.1-0.5-0.2-1.2-0.3-2.1c-0.1-0.8-0.1-1.8-0.1-3c0-1.9,0.2-3.3,0.5-4c0.3-0.7,0.8-1.1,1.5-1.1
			c0.4,0,1.1,0.3,2.1,0.8c1,0.5,2.3,1.1,3.8,1.8c1.5,0.6,3.3,1.2,5.4,1.8c2.1,0.5,4.4,0.8,7,0.8c2.2,0,4.2-0.3,5.9-0.8
			c1.7-0.5,3.1-1.3,4.3-2.2c1.2-1,2.1-2.1,2.7-3.5c0.6-1.4,0.9-2.9,0.9-4.5c0-1.8-0.4-3.5-1.1-4.9c-0.7-1.5-1.8-2.7-3.2-3.7
			c-1.4-1-3.2-1.8-5.3-2.4c-2.1-0.6-4.6-0.9-7.5-0.9h-6.8c-0.5,0-1-0.1-1.3-0.2s-0.7-0.4-0.9-0.9C8.3,45.4,8.1,44.8,8,44
			c-0.1-0.8-0.2-1.8-0.2-3.1c0-1.2,0.1-2.1,0.2-2.9c0.1-0.7,0.3-1.3,0.5-1.7c0.2-0.4,0.5-0.7,0.9-0.8c0.3-0.2,0.8-0.2,1.2-0.2h6.9
			c2.3,0,4.4-0.3,6.3-0.8c1.8-0.5,3.3-1.3,4.6-2.3c1.2-1,2.2-2.2,2.8-3.7c0.6-1.4,1-3,1-4.8c0-1.3-0.2-2.6-0.7-3.8
			c-0.4-1.2-1.1-2.2-2-3.1c-0.9-0.9-2-1.6-3.4-2.1c-1.4-0.5-3-0.8-4.9-0.8c-2.1,0-4.1,0.3-6,0.9c-1.9,0.6-3.5,1.3-5,2.1
			S7.5,18.4,6.5,19c-1,0.6-1.8,1-2.3,1c-0.3,0-0.6-0.1-0.8-0.2c-0.2-0.1-0.4-0.4-0.6-0.8c-0.2-0.4-0.3-1-0.4-1.8
			c-0.1-0.8-0.1-1.8-0.1-3c0-1,0-1.9,0.1-2.5c0-0.7,0.1-1.2,0.2-1.7C2.7,9.6,2.8,9.2,3,8.9c0.2-0.3,0.5-0.7,0.9-1.1
			c0.4-0.4,1.2-1,2.5-1.7c1.3-0.8,2.8-1.5,4.7-2.2C13,3.1,15.2,2.5,17.7,2c2.5-0.5,5.2-0.8,8.1-0.8c3.8,0,7.2,0.4,10.1,1.3
			c2.9,0.9,5.4,2.2,7.4,3.9c2,1.7,3.5,3.7,4.6,6.2c1,2.5,1.5,5.2,1.5,8.3c0,2.4-0.3,4.6-0.9,6.7c-0.6,2.1-1.5,3.9-2.7,5.5
			c-1.2,1.6-2.6,3-4.4,4.1c-1.8,1.1-3.8,2-6.1,2.5V40c2.8,0.3,5.2,1,7.4,2.1c2.2,1.1,4,2.4,5.6,4c1.5,1.6,2.7,3.5,3.5,5.5
			C52.6,53.6,53,55.8,53,58.2z"/>
	</g>
</g>
</svg>
