<?xml version="1.0" encoding="utf-8"?>
<!-- Generator: Adobe Illustrator 21.1.0, SVG Export Plug-In . SVG Version: 6.00 Build 0)  -->
<svg version="1.1" id="Laag_1" xmlns="http://www.w3.org/2000/svg" xmlns:xlink="http://www.w3.org/1999/xlink" x="0px" y="0px"
	 viewBox="0 0 52.7 83.3" style="enable-background:new 0 0 52.7 83.3;" xml:space="preserve">
<style type="text/css">
	.st0{fill:#BE1622;}
</style>
<g>
	<g>
		<path class="st0" d="M50.7,75.4c0,1.1-0.1,2.1-0.2,2.9c-0.1,0.8-0.3,1.4-0.5,1.9c-0.2,0.5-0.5,0.8-0.8,1c-0.3,0.2-0.6,0.3-1,0.3
			H4.4c-0.3,0-0.6-0.1-0.9-0.3c-0.3-0.2-0.5-0.5-0.8-1c-0.2-0.5-0.4-1.1-0.5-1.9S2,76.6,2,75.4c0-1.2,0.1-2.2,0.2-3
			c0.1-0.8,0.3-1.4,0.5-1.9c0.2-0.5,0.5-0.8,0.8-1.1c0.3-0.2,0.6-0.3,1-0.3h14.8V17.4L6.4,24.4c-0.9,0.5-1.7,0.7-2.3,0.8
			c-0.6,0.1-1.1,0-1.4-0.4c-0.3-0.3-0.6-1-0.7-1.8c-0.1-0.9-0.2-2.1-0.2-3.6c0-1,0-1.8,0.1-2.4c0-0.6,0.1-1.2,0.3-1.6
			c0.2-0.5,0.4-0.8,0.7-1.1C3.1,14,3.5,13.7,4,13.4L21.1,2.3c0.2-0.2,0.5-0.3,0.8-0.4c0.3-0.1,0.7-0.2,1.2-0.2s1.1-0.1,1.9-0.1
			c0.8,0,1.8,0,3.1,0c1.6,0,2.8,0,3.8,0.1c1,0.1,1.7,0.2,2.2,0.3c0.5,0.1,0.8,0.3,1,0.6c0.2,0.2,0.2,0.6,0.2,0.9v65.7h13
			c0.4,0,0.7,0.1,1,0.3c0.3,0.2,0.6,0.6,0.8,1.1c0.2,0.5,0.4,1.1,0.5,1.9C50.6,73.2,50.7,74.2,50.7,75.4z"/>
	</g>
</g>
</svg>
